<mxfile host="app.diagrams.net" modified="2023-03-06T08:14:37.909Z" agent="5.0 (Windows NT 10.0; Win64; x64) AppleWebKit/537.36 (KHTML, like Gecko) Chrome/110.0.0.0 Safari/537.36" etag="bZ-wkrIVGzSskjsM0ztz" version="20.8.23" type="github" pages="3">
  <diagram id="WNIIqbhXH_JYyIdbcv7f" name="შეღავათიანიi კურსზე შეთანხმება">
    <mxGraphModel dx="1420" dy="733" grid="1" gridSize="10" guides="1" tooltips="1" connect="1" arrows="1" fold="1" page="1" pageScale="1" pageWidth="1169" pageHeight="827" math="0" shadow="0">
      <root>
        <mxCell id="0" />
        <mxCell id="1" parent="0" />
        <mxCell id="fLT7ioBLnvyj1-0Y534x-1" value="&lt;b&gt;ბიზნეს ინტერნეტ ბანკი&lt;/b&gt;" style="swimlane;html=1;startSize=50;fontStyle=0;collapsible=0;horizontal=1;swimlaneLine=1;strokeWidth=2;swimlaneFillColor=#ffffff;whiteSpace=wrap;" parent="1" vertex="1">
          <mxGeometry x="20" y="80" width="370" height="720" as="geometry" />
        </mxCell>
        <mxCell id="fLT7ioBLnvyj1-0Y534x-7" value="წითელი&lt;br&gt;ვალიდაცია" style="points=[[0.145,0.145,0],[0.5,0,0],[0.855,0.145,0],[1,0.5,0],[0.855,0.855,0],[0.5,1,0],[0.145,0.855,0],[0,0.5,0]];shape=mxgraph.bpmn.event;html=1;verticalLabelPosition=bottom;labelBackgroundColor=#ffffff;verticalAlign=top;align=center;perimeter=ellipsePerimeter;outlineConnect=0;aspect=fixed;outline=end;symbol=terminate2;strokeColor=#CC0000;" parent="fLT7ioBLnvyj1-0Y534x-1" vertex="1">
          <mxGeometry x="30" y="190" width="50" height="50" as="geometry" />
        </mxCell>
        <mxCell id="fLT7ioBLnvyj1-0Y534x-8" value="მწვანე&lt;br&gt;ვალიდაცია" style="points=[[0.145,0.145,0],[0.5,0,0],[0.855,0.145,0],[1,0.5,0],[0.855,0.855,0],[0.5,1,0],[0.145,0.855,0],[0,0.5,0]];shape=mxgraph.bpmn.event;html=1;verticalLabelPosition=bottom;labelBackgroundColor=#ffffff;verticalAlign=top;align=center;perimeter=ellipsePerimeter;outlineConnect=0;aspect=fixed;outline=end;symbol=terminate2;fontColor=#000000;strokeColor=#006633;" parent="fLT7ioBLnvyj1-0Y534x-1" vertex="1">
          <mxGeometry x="30" y="308.5" width="50" height="50" as="geometry" />
        </mxCell>
        <mxCell id="fLT7ioBLnvyj1-0Y534x-12" value="" style="points=[[0.25,0.25,0],[0.5,0,0],[0.75,0.25,0],[1,0.5,0],[0.75,0.75,0],[0.5,1,0],[0.25,0.75,0],[0,0.5,0]];shape=mxgraph.bpmn.gateway2;html=1;verticalLabelPosition=bottom;labelBackgroundColor=#ffffff;verticalAlign=top;align=center;perimeter=rhombusPerimeter;outlineConnect=0;outline=none;symbol=none;gwType=exclusive;fontColor=#006633;" parent="fLT7ioBLnvyj1-0Y534x-1" vertex="1">
          <mxGeometry x="70" y="540" width="50" height="50" as="geometry" />
        </mxCell>
        <mxCell id="fLT7ioBLnvyj1-0Y534x-13" style="edgeStyle=orthogonalEdgeStyle;rounded=0;orthogonalLoop=1;jettySize=auto;html=1;fontColor=#006633;exitX=0.5;exitY=0;exitDx=0;exitDy=0;exitPerimeter=0;entryX=0.5;entryY=1;entryDx=0;entryDy=0;" parent="fLT7ioBLnvyj1-0Y534x-1" source="fLT7ioBLnvyj1-0Y534x-12" target="s3FwA-KahW7M2Cyu16Zl-2" edge="1">
          <mxGeometry relative="1" as="geometry">
            <mxPoint x="140" y="500" as="targetPoint" />
            <Array as="points">
              <mxPoint x="95" y="480" />
              <mxPoint x="95" y="480" />
            </Array>
          </mxGeometry>
        </mxCell>
        <mxCell id="fLT7ioBLnvyj1-0Y534x-14" value="დიახ" style="edgeLabel;html=1;align=center;verticalAlign=middle;resizable=0;points=[];fontColor=#006633;" parent="fLT7ioBLnvyj1-0Y534x-13" vertex="1" connectable="0">
          <mxGeometry x="-0.7737" y="2" relative="1" as="geometry">
            <mxPoint x="-23" y="-14" as="offset" />
          </mxGeometry>
        </mxCell>
        <mxCell id="fLT7ioBLnvyj1-0Y534x-15" value="&lt;b&gt;ახალი კურსის&lt;br&gt;მოთხოვნა&lt;/b&gt;" style="rounded=1;whiteSpace=wrap;html=1;labelBackgroundColor=none;fontColor=#330000;" parent="fLT7ioBLnvyj1-0Y534x-1" vertex="1">
          <mxGeometry x="70" y="660" width="100" height="40" as="geometry" />
        </mxCell>
        <mxCell id="fLT7ioBLnvyj1-0Y534x-16" style="edgeStyle=orthogonalEdgeStyle;rounded=0;orthogonalLoop=1;jettySize=auto;html=1;fontColor=#990000;entryX=0;entryY=0.5;entryDx=0;entryDy=0;exitX=0;exitY=0.5;exitDx=0;exitDy=0;exitPerimeter=0;" parent="fLT7ioBLnvyj1-0Y534x-1" source="fLT7ioBLnvyj1-0Y534x-12" target="fLT7ioBLnvyj1-0Y534x-15" edge="1">
          <mxGeometry relative="1" as="geometry">
            <mxPoint x="40" y="710" as="targetPoint" />
            <Array as="points">
              <mxPoint x="40" y="565" />
              <mxPoint x="40" y="680" />
            </Array>
            <mxPoint x="70" y="610" as="sourcePoint" />
          </mxGeometry>
        </mxCell>
        <mxCell id="fLT7ioBLnvyj1-0Y534x-17" value="რამდენად მისაღებია&lt;br&gt;კურსი კლიენტისთვის" style="text;html=1;strokeColor=none;fillColor=none;align=center;verticalAlign=middle;whiteSpace=wrap;rounded=0;fontColor=#330000;fontStyle=1" parent="fLT7ioBLnvyj1-0Y534x-1" vertex="1">
          <mxGeometry x="110" y="580" width="135" height="30" as="geometry" />
        </mxCell>
        <mxCell id="fLT7ioBLnvyj1-0Y534x-10" style="edgeStyle=orthogonalEdgeStyle;rounded=0;orthogonalLoop=1;jettySize=auto;html=1;fontColor=#006633;exitX=1;exitY=0.5;exitDx=0;exitDy=0;exitPerimeter=0;entryX=0.5;entryY=1;entryDx=0;entryDy=0;" parent="fLT7ioBLnvyj1-0Y534x-1" source="fLT7ioBLnvyj1-0Y534x-12" target="i6vw84MvIE6cZ_uuGkVr-4" edge="1">
          <mxGeometry relative="1" as="geometry">
            <mxPoint x="130" y="640" as="sourcePoint" />
            <Array as="points">
              <mxPoint x="185" y="565" />
            </Array>
            <mxPoint x="185" y="510" as="targetPoint" />
          </mxGeometry>
        </mxCell>
        <mxCell id="fLT7ioBLnvyj1-0Y534x-11" value="&lt;b&gt;&lt;font color=&quot;#990000&quot;&gt;არა&lt;/font&gt;&lt;/b&gt;" style="edgeLabel;html=1;align=center;verticalAlign=middle;resizable=0;points=[];fontColor=#006633;" parent="fLT7ioBLnvyj1-0Y534x-10" vertex="1" connectable="0">
          <mxGeometry x="-0.4073" y="1" relative="1" as="geometry">
            <mxPoint x="21" y="49" as="offset" />
          </mxGeometry>
        </mxCell>
        <mxCell id="Hcv9Upy-WteK5k7MVz1i-4" style="edgeStyle=orthogonalEdgeStyle;rounded=0;orthogonalLoop=1;jettySize=auto;html=1;fontSize=12;entryX=0;entryY=0.5;entryDx=0;entryDy=0;exitX=1;exitY=0.5;exitDx=0;exitDy=0;exitPerimeter=0;" parent="fLT7ioBLnvyj1-0Y534x-1" source="P6x5vUnbgCcCFajjRTt9-4" target="-HIJDZjHmONztv0HzG4I-1" edge="1">
          <mxGeometry relative="1" as="geometry">
            <mxPoint x="160" y="105" as="targetPoint" />
          </mxGeometry>
        </mxCell>
        <mxCell id="Hcv9Upy-WteK5k7MVz1i-5" value="" style="points=[[0.145,0.145,0],[0.5,0,0],[0.855,0.145,0],[1,0.5,0],[0.855,0.855,0],[0.5,1,0],[0.145,0.855,0],[0,0.5,0]];shape=mxgraph.bpmn.event;html=1;verticalLabelPosition=bottom;labelBackgroundColor=#ffffff;verticalAlign=top;align=center;perimeter=ellipsePerimeter;outlineConnect=0;aspect=fixed;outline=throwing;symbol=general;fontSize=12;" parent="fLT7ioBLnvyj1-0Y534x-1" vertex="1">
          <mxGeometry x="300" y="110" width="50" height="50" as="geometry" />
        </mxCell>
        <mxCell id="fLT7ioBLnvyj1-0Y534x-49" style="edgeStyle=orthogonalEdgeStyle;rounded=0;orthogonalLoop=1;jettySize=auto;html=1;fontColor=#990000;dashed=1;exitX=1;exitY=0.5;exitDx=0;exitDy=0;entryX=0.5;entryY=1;entryDx=0;entryDy=0;entryPerimeter=0;" parent="fLT7ioBLnvyj1-0Y534x-1" source="fLT7ioBLnvyj1-0Y534x-15" target="Hcv9Upy-WteK5k7MVz1i-5" edge="1">
          <mxGeometry relative="1" as="geometry">
            <Array as="points">
              <mxPoint x="325" y="680" />
            </Array>
            <mxPoint x="250" y="470" as="targetPoint" />
          </mxGeometry>
        </mxCell>
        <mxCell id="-HIJDZjHmONztv0HzG4I-2" style="edgeStyle=orthogonalEdgeStyle;rounded=0;orthogonalLoop=1;jettySize=auto;html=1;entryX=0;entryY=0.5;entryDx=0;entryDy=0;entryPerimeter=0;" parent="fLT7ioBLnvyj1-0Y534x-1" source="-HIJDZjHmONztv0HzG4I-1" target="Hcv9Upy-WteK5k7MVz1i-5" edge="1">
          <mxGeometry relative="1" as="geometry" />
        </mxCell>
        <mxCell id="-HIJDZjHmONztv0HzG4I-1" value="&lt;b&gt;მოთხოვნის ID ფორმირება&lt;/b&gt;" style="rounded=1;whiteSpace=wrap;html=1;labelBackgroundColor=none;fontColor=#330000;" parent="fLT7ioBLnvyj1-0Y534x-1" vertex="1">
          <mxGeometry x="110" y="115" width="100" height="40" as="geometry" />
        </mxCell>
        <mxCell id="P6x5vUnbgCcCFajjRTt9-3" value="შეღავათიანი კურსის მოთხოვნა" style="text;html=1;strokeColor=none;fillColor=none;align=center;verticalAlign=middle;whiteSpace=wrap;rounded=0;fontStyle=1" parent="fLT7ioBLnvyj1-0Y534x-1" vertex="1">
          <mxGeometry x="10" y="60" width="100" height="50" as="geometry" />
        </mxCell>
        <mxCell id="P6x5vUnbgCcCFajjRTt9-4" value="" style="points=[[0.145,0.145,0],[0.5,0,0],[0.855,0.145,0],[1,0.5,0],[0.855,0.855,0],[0.5,1,0],[0.145,0.855,0],[0,0.5,0]];shape=mxgraph.bpmn.event;html=1;verticalLabelPosition=bottom;labelBackgroundColor=#ffffff;verticalAlign=top;align=center;perimeter=ellipsePerimeter;outlineConnect=0;aspect=fixed;outline=standard;symbol=general;" parent="fLT7ioBLnvyj1-0Y534x-1" vertex="1">
          <mxGeometry x="30" y="110" width="50" height="50" as="geometry" />
        </mxCell>
        <mxCell id="s3FwA-KahW7M2Cyu16Zl-3" style="edgeStyle=orthogonalEdgeStyle;rounded=0;orthogonalLoop=1;jettySize=auto;html=1;fontColor=#990000;entryX=1;entryY=0.5;entryDx=0;entryDy=0;entryPerimeter=0;exitX=0.5;exitY=0;exitDx=0;exitDy=0;" parent="fLT7ioBLnvyj1-0Y534x-1" source="s3FwA-KahW7M2Cyu16Zl-2" target="fLT7ioBLnvyj1-0Y534x-8" edge="1">
          <mxGeometry relative="1" as="geometry">
            <mxPoint x="80" y="400" as="targetPoint" />
            <Array as="points">
              <mxPoint x="95" y="334" />
            </Array>
          </mxGeometry>
        </mxCell>
        <mxCell id="s3FwA-KahW7M2Cyu16Zl-2" value="&lt;b&gt;თანხმობის გადმოგზავნა&amp;nbsp;&lt;/b&gt;" style="rounded=1;whiteSpace=wrap;html=1;labelBackgroundColor=none;fontColor=#330000;arcSize=24;" parent="fLT7ioBLnvyj1-0Y534x-1" vertex="1">
          <mxGeometry x="45" y="410" width="100" height="40" as="geometry" />
        </mxCell>
        <mxCell id="s3FwA-KahW7M2Cyu16Zl-7" style="edgeStyle=orthogonalEdgeStyle;rounded=0;orthogonalLoop=1;jettySize=auto;html=1;fontColor=#990000;entryX=0.5;entryY=1;entryDx=0;entryDy=0;entryPerimeter=0;" parent="fLT7ioBLnvyj1-0Y534x-1" source="s3FwA-KahW7M2Cyu16Zl-6" target="fLT7ioBLnvyj1-0Y534x-12" edge="1">
          <mxGeometry relative="1" as="geometry">
            <mxPoint x="100" y="590" as="targetPoint" />
          </mxGeometry>
        </mxCell>
        <mxCell id="s3FwA-KahW7M2Cyu16Zl-6" value="" style="points=[[0.145,0.145,0],[0.5,0,0],[0.855,0.145,0],[1,0.5,0],[0.855,0.855,0],[0.5,1,0],[0.145,0.855,0],[0,0.5,0]];shape=mxgraph.bpmn.event;html=1;verticalLabelPosition=bottom;labelBackgroundColor=#ffffff;verticalAlign=top;align=center;perimeter=ellipsePerimeter;outlineConnect=0;aspect=fixed;outline=throwing;symbol=general;fontSize=12;" parent="fLT7ioBLnvyj1-0Y534x-1" vertex="1">
          <mxGeometry x="240" y="620" width="50" height="50" as="geometry" />
        </mxCell>
        <mxCell id="i6vw84MvIE6cZ_uuGkVr-6" style="edgeStyle=orthogonalEdgeStyle;rounded=0;orthogonalLoop=1;jettySize=auto;html=1;entryX=1;entryY=0.5;entryDx=0;entryDy=0;entryPerimeter=0;" parent="fLT7ioBLnvyj1-0Y534x-1" source="i6vw84MvIE6cZ_uuGkVr-4" target="fLT7ioBLnvyj1-0Y534x-7" edge="1">
          <mxGeometry relative="1" as="geometry">
            <Array as="points">
              <mxPoint x="180" y="215" />
            </Array>
          </mxGeometry>
        </mxCell>
        <mxCell id="i6vw84MvIE6cZ_uuGkVr-4" value="&lt;b&gt;უარის გადმოგზავნა&amp;nbsp;&lt;/b&gt;" style="rounded=1;whiteSpace=wrap;html=1;labelBackgroundColor=none;fontColor=#330000;arcSize=24;" parent="fLT7ioBLnvyj1-0Y534x-1" vertex="1">
          <mxGeometry x="135" y="475" width="100" height="40" as="geometry" />
        </mxCell>
        <mxCell id="fLT7ioBLnvyj1-0Y534x-50" value="TPS" style="swimlane;html=1;childLayout=stackLayout;resizeParent=1;resizeParentMax=0;startSize=20;whiteSpace=wrap;" parent="1" vertex="1">
          <mxGeometry x="620" y="70" width="520" height="720" as="geometry" />
        </mxCell>
        <mxCell id="fLT7ioBLnvyj1-0Y534x-22" style="edgeStyle=orthogonalEdgeStyle;rounded=0;orthogonalLoop=1;jettySize=auto;html=1;entryX=0;entryY=0.5;entryDx=0;entryDy=0;entryPerimeter=0;fontColor=#004F28;exitX=1;exitY=0.5;exitDx=0;exitDy=0;exitPerimeter=0;" parent="fLT7ioBLnvyj1-0Y534x-50" source="fLT7ioBLnvyj1-0Y534x-20" target="fLT7ioBLnvyj1-0Y534x-26" edge="1">
          <mxGeometry relative="1" as="geometry">
            <Array as="points">
              <mxPoint x="260" y="165" />
              <mxPoint x="260" y="165" />
            </Array>
          </mxGeometry>
        </mxCell>
        <mxCell id="fLT7ioBLnvyj1-0Y534x-23" value="&lt;b&gt;&lt;font color=&quot;#ff0000&quot;&gt;არა&lt;/font&gt;&lt;/b&gt;" style="edgeLabel;html=1;align=center;verticalAlign=middle;resizable=0;points=[];fontColor=#000000;" parent="fLT7ioBLnvyj1-0Y534x-22" vertex="1" connectable="0">
          <mxGeometry x="-0.846" y="2" relative="1" as="geometry">
            <mxPoint y="-13" as="offset" />
          </mxGeometry>
        </mxCell>
        <mxCell id="fLT7ioBLnvyj1-0Y534x-46" style="edgeStyle=orthogonalEdgeStyle;rounded=0;orthogonalLoop=1;jettySize=auto;html=1;fontColor=#006633;entryX=0.5;entryY=1;entryDx=0;entryDy=0;entryPerimeter=0;exitX=0;exitY=0.5;exitDx=0;exitDy=0;exitPerimeter=0;" parent="fLT7ioBLnvyj1-0Y534x-50" source="fLT7ioBLnvyj1-0Y534x-32" target="fLT7ioBLnvyj1-0Y534x-6" edge="1">
          <mxGeometry relative="1" as="geometry">
            <mxPoint x="-220" y="435" as="targetPoint" />
            <Array as="points">
              <mxPoint x="95" y="430" />
            </Array>
          </mxGeometry>
        </mxCell>
        <mxCell id="fLT7ioBLnvyj1-0Y534x-47" value="დიახ" style="edgeLabel;html=1;align=center;verticalAlign=middle;resizable=0;points=[];fontColor=#006633;fontStyle=1" parent="fLT7ioBLnvyj1-0Y534x-46" vertex="1" connectable="0">
          <mxGeometry x="-0.7911" y="-1" relative="1" as="geometry">
            <mxPoint x="-11" y="-19" as="offset" />
          </mxGeometry>
        </mxCell>
        <mxCell id="P6x5vUnbgCcCFajjRTt9-6" style="edgeStyle=orthogonalEdgeStyle;rounded=0;orthogonalLoop=1;jettySize=auto;html=1;entryX=1;entryY=0.5;entryDx=0;entryDy=0;entryPerimeter=0;exitX=0;exitY=0.5;exitDx=0;exitDy=0;exitPerimeter=0;" parent="fLT7ioBLnvyj1-0Y534x-50" source="fLT7ioBLnvyj1-0Y534x-28" target="fLT7ioBLnvyj1-0Y534x-6" edge="1">
          <mxGeometry relative="1" as="geometry">
            <Array as="points">
              <mxPoint x="200" y="325" />
              <mxPoint x="200" y="325" />
            </Array>
          </mxGeometry>
        </mxCell>
        <mxCell id="P6x5vUnbgCcCFajjRTt9-7" value="დიახ" style="edgeLabel;html=1;align=center;verticalAlign=middle;resizable=0;points=[];fontColor=#006633;fontStyle=1" parent="P6x5vUnbgCcCFajjRTt9-6" vertex="1" connectable="0">
          <mxGeometry x="-0.8157" relative="1" as="geometry">
            <mxPoint x="-16" y="10" as="offset" />
          </mxGeometry>
        </mxCell>
        <mxCell id="fLT7ioBLnvyj1-0Y534x-51" value="TPS ოპერაციები" style="swimlane;html=1;startSize=40;" parent="fLT7ioBLnvyj1-0Y534x-50" vertex="1">
          <mxGeometry y="20" width="190" height="700" as="geometry" />
        </mxCell>
        <mxCell id="fLT7ioBLnvyj1-0Y534x-20" value="" style="points=[[0.25,0.25,0],[0.5,0,0],[0.75,0.25,0],[1,0.5,0],[0.75,0.75,0],[0.5,1,0],[0.25,0.75,0],[0,0.5,0]];shape=mxgraph.bpmn.gateway2;html=1;verticalLabelPosition=bottom;labelBackgroundColor=#ffffff;verticalAlign=top;align=center;perimeter=rhombusPerimeter;outlineConnect=0;outline=none;symbol=none;gwType=exclusive;" parent="fLT7ioBLnvyj1-0Y534x-51" vertex="1">
          <mxGeometry x="70" y="118" width="50" height="50" as="geometry" />
        </mxCell>
        <mxCell id="fLT7ioBLnvyj1-0Y534x-6" value="" style="points=[[0.145,0.145,0],[0.5,0,0],[0.855,0.145,0],[1,0.5,0],[0.855,0.855,0],[0.5,1,0],[0.145,0.855,0],[0,0.5,0]];shape=mxgraph.bpmn.event;html=1;verticalLabelPosition=bottom;labelBackgroundColor=#ffffff;verticalAlign=top;align=center;perimeter=ellipsePerimeter;outlineConnect=0;aspect=fixed;outline=throwing;symbol=general;strokeColor=#006633;" parent="fLT7ioBLnvyj1-0Y534x-51" vertex="1">
          <mxGeometry x="70" y="280" width="50" height="50" as="geometry" />
        </mxCell>
        <mxCell id="fLT7ioBLnvyj1-0Y534x-37" style="edgeStyle=orthogonalEdgeStyle;rounded=0;orthogonalLoop=1;jettySize=auto;html=1;fontStyle=0;exitX=0.5;exitY=1;exitDx=0;exitDy=0;exitPerimeter=0;entryX=0.5;entryY=0;entryDx=0;entryDy=0;entryPerimeter=0;" parent="fLT7ioBLnvyj1-0Y534x-51" source="fLT7ioBLnvyj1-0Y534x-20" target="fLT7ioBLnvyj1-0Y534x-6" edge="1">
          <mxGeometry relative="1" as="geometry">
            <Array as="points">
              <mxPoint x="95" y="220" />
              <mxPoint x="95" y="220" />
            </Array>
            <mxPoint x="100" y="250" as="targetPoint" />
          </mxGeometry>
        </mxCell>
        <mxCell id="fLT7ioBLnvyj1-0Y534x-38" value="&lt;b&gt;&lt;font color=&quot;#004f28&quot;&gt;დიახ&lt;/font&gt;&lt;/b&gt;" style="edgeLabel;html=1;align=center;verticalAlign=middle;resizable=0;points=[];" parent="fLT7ioBLnvyj1-0Y534x-37" vertex="1" connectable="0">
          <mxGeometry x="-0.9329" y="-1" relative="1" as="geometry">
            <mxPoint x="26" y="26" as="offset" />
          </mxGeometry>
        </mxCell>
        <mxCell id="Jola7J--m7OuoFBo68dx-1" value="&lt;font style=&quot;font-size: 14px;&quot;&gt;კურსის შემოწმება საკურსო ბადეში&lt;/font&gt;" style="text;html=1;strokeColor=none;fillColor=none;align=center;verticalAlign=middle;whiteSpace=wrap;rounded=0;fontStyle=1;fontColor=#660000;" parent="fLT7ioBLnvyj1-0Y534x-51" vertex="1">
          <mxGeometry x="5" y="80" width="180" height="10" as="geometry" />
        </mxCell>
        <mxCell id="s3FwA-KahW7M2Cyu16Zl-4" value="&lt;b&gt;შეთანხმების დასრულება&lt;/b&gt;" style="rounded=1;whiteSpace=wrap;html=1;labelBackgroundColor=none;fontColor=#330000;arcSize=24;" parent="fLT7ioBLnvyj1-0Y534x-51" vertex="1">
          <mxGeometry x="20" y="560" width="100" height="40" as="geometry" />
        </mxCell>
        <mxCell id="i6vw84MvIE6cZ_uuGkVr-8" style="edgeStyle=orthogonalEdgeStyle;rounded=0;orthogonalLoop=1;jettySize=auto;html=1;entryX=0.5;entryY=0;entryDx=0;entryDy=0;" parent="fLT7ioBLnvyj1-0Y534x-51" source="i6vw84MvIE6cZ_uuGkVr-1" target="s3FwA-KahW7M2Cyu16Zl-4" edge="1">
          <mxGeometry relative="1" as="geometry" />
        </mxCell>
        <mxCell id="i6vw84MvIE6cZ_uuGkVr-1" value="" style="points=[[0.145,0.145,0],[0.5,0,0],[0.855,0.145,0],[1,0.5,0],[0.855,0.855,0],[0.5,1,0],[0.145,0.855,0],[0,0.5,0]];shape=mxgraph.bpmn.event;html=1;verticalLabelPosition=bottom;labelBackgroundColor=#ffffff;verticalAlign=top;align=center;perimeter=ellipsePerimeter;outlineConnect=0;aspect=fixed;outline=throwing;symbol=general;fontSize=12;" parent="fLT7ioBLnvyj1-0Y534x-51" vertex="1">
          <mxGeometry x="45" y="460" width="50" height="50" as="geometry" />
        </mxCell>
        <mxCell id="fLT7ioBLnvyj1-0Y534x-52" value="&lt;b style=&quot;border-color: var(--border-color); color: rgb(0, 79, 40);&quot;&gt;TPS&lt;br style=&quot;border-color: var(--border-color);&quot;&gt;გარიგება&lt;/b&gt;" style="swimlane;html=1;startSize=40;" parent="fLT7ioBLnvyj1-0Y534x-50" vertex="1">
          <mxGeometry x="190" y="20" width="330" height="700" as="geometry" />
        </mxCell>
        <mxCell id="fLT7ioBLnvyj1-0Y534x-26" value="" style="points=[[0.25,0.25,0],[0.5,0,0],[0.75,0.25,0],[1,0.5,0],[0.75,0.75,0],[0.5,1,0],[0.25,0.75,0],[0,0.5,0]];shape=mxgraph.bpmn.gateway2;html=1;verticalLabelPosition=bottom;labelBackgroundColor=#ffffff;verticalAlign=top;align=center;perimeter=rhombusPerimeter;outlineConnect=0;outline=none;symbol=none;gwType=exclusive;" parent="fLT7ioBLnvyj1-0Y534x-52" vertex="1">
          <mxGeometry x="110" y="120" width="50" height="50" as="geometry" />
        </mxCell>
        <mxCell id="fLT7ioBLnvyj1-0Y534x-28" value="" style="points=[[0.25,0.25,0],[0.5,0,0],[0.75,0.25,0],[1,0.5,0],[0.75,0.75,0],[0.5,1,0],[0.25,0.75,0],[0,0.5,0]];shape=mxgraph.bpmn.gateway2;html=1;verticalLabelPosition=bottom;labelBackgroundColor=#ffffff;verticalAlign=top;align=center;perimeter=rhombusPerimeter;outlineConnect=0;outline=none;symbol=none;gwType=exclusive;fontColor=#CC0000;" parent="fLT7ioBLnvyj1-0Y534x-52" vertex="1">
          <mxGeometry x="110" y="280" width="50" height="50" as="geometry" />
        </mxCell>
        <mxCell id="fLT7ioBLnvyj1-0Y534x-31" value="არა" style="edgeStyle=orthogonalEdgeStyle;rounded=0;orthogonalLoop=1;jettySize=auto;html=1;fontColor=#CC0000;fontStyle=1;entryX=0.5;entryY=0;entryDx=0;entryDy=0;entryPerimeter=0;exitX=0.5;exitY=1;exitDx=0;exitDy=0;exitPerimeter=0;" parent="fLT7ioBLnvyj1-0Y534x-52" source="fLT7ioBLnvyj1-0Y534x-28" target="fLT7ioBLnvyj1-0Y534x-32" edge="1">
          <mxGeometry x="0.0909" y="25" relative="1" as="geometry">
            <mxPoint x="375" y="329" as="targetPoint" />
            <mxPoint y="1" as="offset" />
          </mxGeometry>
        </mxCell>
        <mxCell id="fLT7ioBLnvyj1-0Y534x-29" value="&lt;font color=&quot;#330000&quot;&gt;თანხა და კურსი ჯდება&lt;br&gt;დელეგირებუი პირის ლიმიტებში&lt;br&gt;&lt;/font&gt;" style="text;html=1;strokeColor=none;fillColor=none;align=center;verticalAlign=middle;whiteSpace=wrap;rounded=0;fontColor=#CC0000;fontStyle=1" parent="fLT7ioBLnvyj1-0Y534x-52" vertex="1">
          <mxGeometry y="230" width="120" height="70" as="geometry" />
        </mxCell>
        <mxCell id="P6x5vUnbgCcCFajjRTt9-2" style="edgeStyle=orthogonalEdgeStyle;rounded=0;orthogonalLoop=1;jettySize=auto;html=1;entryX=0;entryY=0.5;entryDx=0;entryDy=0;" parent="fLT7ioBLnvyj1-0Y534x-52" source="fLT7ioBLnvyj1-0Y534x-32" target="fLT7ioBLnvyj1-0Y534x-34" edge="1">
          <mxGeometry relative="1" as="geometry" />
        </mxCell>
        <mxCell id="fLT7ioBLnvyj1-0Y534x-32" value="" style="points=[[0.25,0.25,0],[0.5,0,0],[0.75,0.25,0],[1,0.5,0],[0.75,0.75,0],[0.5,1,0],[0.25,0.75,0],[0,0.5,0]];shape=mxgraph.bpmn.gateway2;html=1;verticalLabelPosition=bottom;labelBackgroundColor=#ffffff;verticalAlign=top;align=center;perimeter=rhombusPerimeter;outlineConnect=0;outline=none;symbol=none;gwType=exclusive;fontColor=#006633;" parent="fLT7ioBLnvyj1-0Y534x-52" vertex="1">
          <mxGeometry x="110" y="385" width="50" height="50" as="geometry" />
        </mxCell>
        <mxCell id="fLT7ioBLnvyj1-0Y534x-34" value="&lt;b&gt;ახალი კურსის&lt;br&gt;შეთავაზება&lt;/b&gt;" style="rounded=1;whiteSpace=wrap;html=1;labelBackgroundColor=none;fontColor=#330000;" parent="fLT7ioBLnvyj1-0Y534x-52" vertex="1">
          <mxGeometry x="200" y="390" width="100" height="40" as="geometry" />
        </mxCell>
        <mxCell id="fLT7ioBLnvyj1-0Y534x-35" style="edgeStyle=orthogonalEdgeStyle;rounded=0;orthogonalLoop=1;jettySize=auto;html=1;fontColor=#330000;exitX=1;exitY=0.5;exitDx=0;exitDy=0;exitPerimeter=0;entryX=0.5;entryY=0;entryDx=0;entryDy=0;" parent="fLT7ioBLnvyj1-0Y534x-52" source="fLT7ioBLnvyj1-0Y534x-26" target="fLT7ioBLnvyj1-0Y534x-34" edge="1">
          <mxGeometry relative="1" as="geometry">
            <Array as="points">
              <mxPoint x="260" y="145" />
            </Array>
          </mxGeometry>
        </mxCell>
        <mxCell id="P6x5vUnbgCcCFajjRTt9-31" value="არა" style="edgeLabel;html=1;align=center;verticalAlign=middle;resizable=0;points=[];fontColor=#990000;fontStyle=1" parent="fLT7ioBLnvyj1-0Y534x-35" vertex="1" connectable="0">
          <mxGeometry x="-0.1792" y="-3" relative="1" as="geometry">
            <mxPoint x="-17" y="16" as="offset" />
          </mxGeometry>
        </mxCell>
        <mxCell id="Jola7J--m7OuoFBo68dx-2" value="&lt;font color=&quot;#330000&quot;&gt;დელეგირებული&lt;br&gt;პირი&lt;br&gt;&lt;/font&gt;" style="text;html=1;strokeColor=none;fillColor=none;align=center;verticalAlign=middle;whiteSpace=wrap;rounded=0;fontColor=#CC0000;fontStyle=1" parent="fLT7ioBLnvyj1-0Y534x-52" vertex="1">
          <mxGeometry x="10" y="80" width="120" height="40" as="geometry" />
        </mxCell>
        <mxCell id="Jola7J--m7OuoFBo68dx-4" value="&lt;font color=&quot;#330000&quot;&gt;მეორე დონის&lt;br&gt;დასტური&lt;br&gt;&lt;/font&gt;" style="text;html=1;strokeColor=none;fillColor=none;align=center;verticalAlign=middle;whiteSpace=wrap;rounded=0;fontColor=#CC0000;fontStyle=1" parent="fLT7ioBLnvyj1-0Y534x-52" vertex="1">
          <mxGeometry x="40" y="440" width="90" height="40" as="geometry" />
        </mxCell>
        <mxCell id="fLT7ioBLnvyj1-0Y534x-42" style="edgeStyle=orthogonalEdgeStyle;rounded=0;orthogonalLoop=1;jettySize=auto;html=1;fontColor=#006633;entryX=0.5;entryY=0;entryDx=0;entryDy=0;entryPerimeter=0;exitX=0.5;exitY=1;exitDx=0;exitDy=0;exitPerimeter=0;" parent="fLT7ioBLnvyj1-0Y534x-52" source="fLT7ioBLnvyj1-0Y534x-26" target="fLT7ioBLnvyj1-0Y534x-28" edge="1">
          <mxGeometry relative="1" as="geometry">
            <mxPoint x="-500" y="290" as="targetPoint" />
            <Array as="points">
              <mxPoint x="135" y="220" />
              <mxPoint x="135" y="220" />
            </Array>
          </mxGeometry>
        </mxCell>
        <mxCell id="fLT7ioBLnvyj1-0Y534x-43" value="დიახ" style="edgeLabel;html=1;align=center;verticalAlign=middle;resizable=0;points=[];fontColor=#006633;" parent="fLT7ioBLnvyj1-0Y534x-42" vertex="1" connectable="0">
          <mxGeometry x="-0.9268" relative="1" as="geometry">
            <mxPoint x="-25" y="16" as="offset" />
          </mxGeometry>
        </mxCell>
        <mxCell id="fLT7ioBLnvyj1-0Y534x-5" style="edgeStyle=orthogonalEdgeStyle;rounded=0;orthogonalLoop=1;jettySize=auto;html=1;entryX=0.5;entryY=0;entryDx=0;entryDy=0;entryPerimeter=0;fontColor=#004F28;exitX=0;exitY=0.5;exitDx=0;exitDy=0;exitPerimeter=0;" parent="1" source="fLT7ioBLnvyj1-0Y534x-6" target="s3FwA-KahW7M2Cyu16Zl-6" edge="1">
          <mxGeometry relative="1" as="geometry">
            <Array as="points">
              <mxPoint x="285" y="395" />
            </Array>
          </mxGeometry>
        </mxCell>
        <mxCell id="Jola7J--m7OuoFBo68dx-3" value="" style="edgeStyle=elbowEdgeStyle;fontSize=12;html=1;endFill=0;startFill=1;endSize=6;startSize=6;dashed=1;endArrow=none;startArrow=classic;rounded=0;entryX=0.5;entryY=1;entryDx=0;entryDy=0;exitX=1;exitY=0.5;exitDx=0;exitDy=0;exitPerimeter=0;" parent="1" source="s3FwA-KahW7M2Cyu16Zl-6" target="fLT7ioBLnvyj1-0Y534x-34" edge="1">
          <mxGeometry width="160" relative="1" as="geometry">
            <mxPoint x="500" y="680" as="sourcePoint" />
            <mxPoint x="660" y="680" as="targetPoint" />
            <Array as="points">
              <mxPoint x="1060" y="680" />
              <mxPoint x="470" y="610" />
              <mxPoint x="580" y="690" />
              <mxPoint x="1030" y="630" />
            </Array>
          </mxGeometry>
        </mxCell>
        <mxCell id="P6x5vUnbgCcCFajjRTt9-13" style="edgeStyle=orthogonalEdgeStyle;rounded=0;orthogonalLoop=1;jettySize=auto;html=1;entryX=0;entryY=0.5;entryDx=0;entryDy=0;entryPerimeter=0;fontColor=#CC0000;exitX=1;exitY=0.577;exitDx=0;exitDy=0;exitPerimeter=0;" parent="1" source="P6x5vUnbgCcCFajjRTt9-23" target="fLT7ioBLnvyj1-0Y534x-20" edge="1">
          <mxGeometry relative="1" as="geometry">
            <mxPoint x="509.9999999999998" y="245" as="sourcePoint" />
            <Array as="points">
              <mxPoint x="610" y="165" />
              <mxPoint x="610" y="233" />
            </Array>
          </mxGeometry>
        </mxCell>
        <UserObject label="RateRequest" link="data:page/id,WNIIqbhXH_JYyIdbcv7f" id="P6x5vUnbgCcCFajjRTt9-14">
          <mxCell style="swimlane;fontStyle=0;childLayout=stackLayout;horizontal=1;startSize=26;fillColor=none;horizontalStack=0;resizeParent=1;resizeParentMax=0;resizeLast=0;collapsible=1;marginBottom=0;html=1;fontColor=#000000;" parent="1" vertex="1">
            <mxGeometry x="430" y="20" width="160" height="286" as="geometry" />
          </mxCell>
        </UserObject>
        <mxCell id="P6x5vUnbgCcCFajjRTt9-15" value="RequestID" style="text;strokeColor=none;fillColor=none;align=left;verticalAlign=top;spacingLeft=4;spacingRight=4;overflow=hidden;rotatable=0;points=[[0,0.5],[1,0.5]];portConstraint=eastwest;whiteSpace=wrap;html=1;fontColor=#000000;" parent="P6x5vUnbgCcCFajjRTt9-14" vertex="1">
          <mxGeometry y="26" width="160" height="26" as="geometry" />
        </mxCell>
        <mxCell id="P6x5vUnbgCcCFajjRTt9-16" value="ClientID" style="text;strokeColor=none;fillColor=none;align=left;verticalAlign=top;spacingLeft=4;spacingRight=4;overflow=hidden;rotatable=0;points=[[0,0.5],[1,0.5]];portConstraint=eastwest;whiteSpace=wrap;html=1;fontColor=#000000;" parent="P6x5vUnbgCcCFajjRTt9-14" vertex="1">
          <mxGeometry y="52" width="160" height="26" as="geometry" />
        </mxCell>
        <mxCell id="P6x5vUnbgCcCFajjRTt9-21" value="ChannelID" style="text;strokeColor=none;fillColor=none;align=left;verticalAlign=top;spacingLeft=4;spacingRight=4;overflow=hidden;rotatable=0;points=[[0,0.5],[1,0.5]];portConstraint=eastwest;whiteSpace=wrap;html=1;fontColor=#000000;" parent="P6x5vUnbgCcCFajjRTt9-14" vertex="1">
          <mxGeometry y="78" width="160" height="26" as="geometry" />
        </mxCell>
        <mxCell id="P6x5vUnbgCcCFajjRTt9-22" value="ProductID" style="text;strokeColor=none;fillColor=none;align=left;verticalAlign=top;spacingLeft=4;spacingRight=4;overflow=hidden;rotatable=0;points=[[0,0.5],[1,0.5]];portConstraint=eastwest;whiteSpace=wrap;html=1;fontColor=#000000;" parent="P6x5vUnbgCcCFajjRTt9-14" vertex="1">
          <mxGeometry y="104" width="160" height="26" as="geometry" />
        </mxCell>
        <mxCell id="P6x5vUnbgCcCFajjRTt9-23" value="BranchID" style="text;strokeColor=none;fillColor=none;align=left;verticalAlign=top;spacingLeft=4;spacingRight=4;overflow=hidden;rotatable=0;points=[[0,0.5],[1,0.5]];portConstraint=eastwest;whiteSpace=wrap;html=1;fontColor=#000000;" parent="P6x5vUnbgCcCFajjRTt9-14" vertex="1">
          <mxGeometry y="130" width="160" height="26" as="geometry" />
        </mxCell>
        <mxCell id="P6x5vUnbgCcCFajjRTt9-24" value="BuyCurrency" style="text;strokeColor=none;fillColor=none;align=left;verticalAlign=top;spacingLeft=4;spacingRight=4;overflow=hidden;rotatable=0;points=[[0,0.5],[1,0.5]];portConstraint=eastwest;whiteSpace=wrap;html=1;fontColor=#000000;" parent="P6x5vUnbgCcCFajjRTt9-14" vertex="1">
          <mxGeometry y="156" width="160" height="26" as="geometry" />
        </mxCell>
        <mxCell id="P6x5vUnbgCcCFajjRTt9-25" value="SellCurrency" style="text;strokeColor=none;fillColor=none;align=left;verticalAlign=top;spacingLeft=4;spacingRight=4;overflow=hidden;rotatable=0;points=[[0,0.5],[1,0.5]];portConstraint=eastwest;whiteSpace=wrap;html=1;fontColor=#000000;" parent="P6x5vUnbgCcCFajjRTt9-14" vertex="1">
          <mxGeometry y="182" width="160" height="26" as="geometry" />
        </mxCell>
        <mxCell id="P6x5vUnbgCcCFajjRTt9-26" value="Amount" style="text;strokeColor=none;fillColor=none;align=left;verticalAlign=top;spacingLeft=4;spacingRight=4;overflow=hidden;rotatable=0;points=[[0,0.5],[1,0.5]];portConstraint=eastwest;whiteSpace=wrap;html=1;fontColor=#000000;" parent="P6x5vUnbgCcCFajjRTt9-14" vertex="1">
          <mxGeometry y="208" width="160" height="26" as="geometry" />
        </mxCell>
        <mxCell id="P6x5vUnbgCcCFajjRTt9-27" value="ExchangeType" style="text;strokeColor=none;fillColor=none;align=left;verticalAlign=top;spacingLeft=4;spacingRight=4;overflow=hidden;rotatable=0;points=[[0,0.5],[1,0.5]];portConstraint=eastwest;whiteSpace=wrap;html=1;fontColor=#000000;" parent="P6x5vUnbgCcCFajjRTt9-14" vertex="1">
          <mxGeometry y="234" width="160" height="26" as="geometry" />
        </mxCell>
        <mxCell id="P6x5vUnbgCcCFajjRTt9-17" value="RateConversionType" style="text;strokeColor=none;fillColor=none;align=left;verticalAlign=top;spacingLeft=4;spacingRight=4;overflow=hidden;rotatable=0;points=[[0,0.5],[1,0.5]];portConstraint=eastwest;whiteSpace=wrap;html=1;fontColor=#000000;" parent="P6x5vUnbgCcCFajjRTt9-14" vertex="1">
          <mxGeometry y="260" width="160" height="26" as="geometry" />
        </mxCell>
        <mxCell id="P6x5vUnbgCcCFajjRTt9-30" style="edgeStyle=orthogonalEdgeStyle;rounded=0;orthogonalLoop=1;jettySize=auto;html=1;fontColor=#000000;entryX=0;entryY=0.5;entryDx=0;entryDy=0;exitX=1;exitY=0.5;exitDx=0;exitDy=0;exitPerimeter=0;" parent="1" source="Hcv9Upy-WteK5k7MVz1i-5" target="P6x5vUnbgCcCFajjRTt9-23" edge="1">
          <mxGeometry relative="1" as="geometry">
            <mxPoint x="379.9999999999998" y="245" as="targetPoint" />
            <mxPoint x="380" y="190" as="sourcePoint" />
            <Array as="points">
              <mxPoint x="410" y="215" />
              <mxPoint x="410" y="163" />
            </Array>
          </mxGeometry>
        </mxCell>
        <mxCell id="s3FwA-KahW7M2Cyu16Zl-5" style="edgeStyle=orthogonalEdgeStyle;rounded=0;orthogonalLoop=1;jettySize=auto;html=1;entryX=0.5;entryY=0;entryDx=0;entryDy=0;fontColor=#990000;exitX=1;exitY=0.5;exitDx=0;exitDy=0;entryPerimeter=0;dashed=1;" parent="1" source="s3FwA-KahW7M2Cyu16Zl-2" target="i6vw84MvIE6cZ_uuGkVr-1" edge="1">
          <mxGeometry relative="1" as="geometry">
            <mxPoint x="210" y="550" as="sourcePoint" />
            <Array as="points">
              <mxPoint x="690" y="510" />
              <mxPoint x="690" y="540" />
            </Array>
          </mxGeometry>
        </mxCell>
        <mxCell id="i6vw84MvIE6cZ_uuGkVr-7" style="edgeStyle=orthogonalEdgeStyle;rounded=0;orthogonalLoop=1;jettySize=auto;html=1;entryX=0;entryY=0.5;entryDx=0;entryDy=0;entryPerimeter=0;dashed=1;" parent="1" source="i6vw84MvIE6cZ_uuGkVr-4" target="i6vw84MvIE6cZ_uuGkVr-1" edge="1">
          <mxGeometry relative="1" as="geometry" />
        </mxCell>
      </root>
    </mxGraphModel>
  </diagram>
  <diagram id="iDMHjMToH96Z5OEKqoNc" name="შეღავთიანი კურსზე სიტყვიერი შეთანხმება">
    <mxGraphModel dx="1276" dy="477" grid="1" gridSize="10" guides="1" tooltips="1" connect="1" arrows="1" fold="1" page="1" pageScale="1" pageWidth="1169" pageHeight="827" math="0" shadow="0">
      <root>
        <mxCell id="0" />
        <mxCell id="1" parent="0" />
        <mxCell id="-iWegg6A6AynjhNWiqT7-1" value="&lt;b&gt;ბიზნეს ინტერნეტ ბანკი&lt;/b&gt;" style="swimlane;html=1;startSize=50;fontStyle=0;collapsible=0;horizontal=1;swimlaneLine=1;strokeWidth=2;swimlaneFillColor=#ffffff;whiteSpace=wrap;" parent="1" vertex="1">
          <mxGeometry x="20" y="40" width="220" height="770" as="geometry" />
        </mxCell>
        <mxCell id="-iWegg6A6AynjhNWiqT7-3" value="მწვანე&lt;br&gt;ვალიდაცია" style="points=[[0.145,0.145,0],[0.5,0,0],[0.855,0.145,0],[1,0.5,0],[0.855,0.855,0],[0.5,1,0],[0.145,0.855,0],[0,0.5,0]];shape=mxgraph.bpmn.event;html=1;verticalLabelPosition=bottom;labelBackgroundColor=#ffffff;verticalAlign=top;align=center;perimeter=ellipsePerimeter;outlineConnect=0;aspect=fixed;outline=end;symbol=terminate2;fontColor=#000000;strokeColor=#006633;" parent="-iWegg6A6AynjhNWiqT7-1" vertex="1">
          <mxGeometry x="20" y="550" width="50" height="50" as="geometry" />
        </mxCell>
        <mxCell id="yiXUlI7e1qbhI_V3_wHB-2" style="edgeStyle=orthogonalEdgeStyle;rounded=0;orthogonalLoop=1;jettySize=auto;html=1;startArrow=none;startFill=0;" parent="-iWegg6A6AynjhNWiqT7-1" source="-iWegg6A6AynjhNWiqT7-16" edge="1">
          <mxGeometry relative="1" as="geometry">
            <mxPoint x="130" y="350" as="targetPoint" />
          </mxGeometry>
        </mxCell>
        <mxCell id="-iWegg6A6AynjhNWiqT7-16" value="&lt;b style=&quot;border-color: var(--border-color);&quot;&gt;განაცხადის სრულყოფა კლიენტის მხრიდან&lt;/b&gt;" style="rounded=1;whiteSpace=wrap;html=1;labelBackgroundColor=none;fontColor=#330000;" parent="-iWegg6A6AynjhNWiqT7-1" vertex="1">
          <mxGeometry x="70" y="230" width="120" height="50" as="geometry" />
        </mxCell>
        <mxCell id="-iWegg6A6AynjhNWiqT7-19" style="edgeStyle=orthogonalEdgeStyle;rounded=0;orthogonalLoop=1;jettySize=auto;html=1;fontColor=#990000;entryX=0.5;entryY=0;entryDx=0;entryDy=0;entryPerimeter=0;exitX=0;exitY=0.5;exitDx=0;exitDy=0;exitPerimeter=0;" parent="-iWegg6A6AynjhNWiqT7-1" source="4s-f31HVpk_ICyJxQD4T-1" target="-iWegg6A6AynjhNWiqT7-3" edge="1">
          <mxGeometry relative="1" as="geometry">
            <mxPoint x="80" y="400" as="targetPoint" />
            <Array as="points">
              <mxPoint x="45" y="374" />
            </Array>
          </mxGeometry>
        </mxCell>
        <mxCell id="-iWegg6A6AynjhNWiqT7-20" value="&lt;b&gt;შეთანხმების დასრულების გადმოგზავნა&amp;nbsp;&lt;/b&gt;" style="rounded=1;whiteSpace=wrap;html=1;labelBackgroundColor=none;fontColor=#330000;arcSize=24;" parent="-iWegg6A6AynjhNWiqT7-1" vertex="1">
          <mxGeometry x="80" y="460" width="100" height="57" as="geometry" />
        </mxCell>
        <mxCell id="ckAe8WCRwSa0hV0LBj_C-2" style="edgeStyle=orthogonalEdgeStyle;rounded=0;orthogonalLoop=1;jettySize=auto;html=1;entryX=0.5;entryY=0;entryDx=0;entryDy=0;startArrow=none;startFill=0;" parent="-iWegg6A6AynjhNWiqT7-1" source="ckAe8WCRwSa0hV0LBj_C-1" target="-iWegg6A6AynjhNWiqT7-16" edge="1">
          <mxGeometry relative="1" as="geometry" />
        </mxCell>
        <mxCell id="ckAe8WCRwSa0hV0LBj_C-1" value="&lt;b style=&quot;border-color: var(--border-color);&quot;&gt;მოთხოვნის ID ფორმირება&lt;/b&gt;" style="rounded=1;whiteSpace=wrap;html=1;labelBackgroundColor=none;fontColor=#330000;" parent="-iWegg6A6AynjhNWiqT7-1" vertex="1">
          <mxGeometry x="70" y="130" width="120" height="39" as="geometry" />
        </mxCell>
        <mxCell id="4s-f31HVpk_ICyJxQD4T-2" style="edgeStyle=orthogonalEdgeStyle;rounded=0;orthogonalLoop=1;jettySize=auto;html=1;fontColor=#990000;startArrow=none;startFill=0;" parent="-iWegg6A6AynjhNWiqT7-1" source="4s-f31HVpk_ICyJxQD4T-1" target="-iWegg6A6AynjhNWiqT7-20" edge="1">
          <mxGeometry relative="1" as="geometry" />
        </mxCell>
        <mxCell id="4s-f31HVpk_ICyJxQD4T-1" value="" style="points=[[0.145,0.145,0],[0.5,0,0],[0.855,0.145,0],[1,0.5,0],[0.855,0.855,0],[0.5,1,0],[0.145,0.855,0],[0,0.5,0]];shape=mxgraph.bpmn.event;html=1;verticalLabelPosition=bottom;labelBackgroundColor=#ffffff;verticalAlign=top;align=center;perimeter=ellipsePerimeter;outlineConnect=0;aspect=fixed;outline=throwing;symbol=general;strokeColor=#330000;" parent="-iWegg6A6AynjhNWiqT7-1" vertex="1">
          <mxGeometry x="105" y="349" width="50" height="50" as="geometry" />
        </mxCell>
        <mxCell id="-iWegg6A6AynjhNWiqT7-25" value="TPS" style="swimlane;html=1;childLayout=stackLayout;resizeParent=1;resizeParentMax=0;startSize=20;whiteSpace=wrap;" parent="1" vertex="1">
          <mxGeometry x="510" y="40" width="550" height="760" as="geometry" />
        </mxCell>
        <mxCell id="-iWegg6A6AynjhNWiqT7-28" style="edgeStyle=orthogonalEdgeStyle;rounded=0;orthogonalLoop=1;jettySize=auto;html=1;fontColor=#006633;exitX=0.5;exitY=1;exitDx=0;exitDy=0;exitPerimeter=0;startArrow=none;startFill=0;entryX=0.5;entryY=1;entryDx=0;entryDy=0;entryPerimeter=0;" parent="-iWegg6A6AynjhNWiqT7-25" source="-iWegg6A6AynjhNWiqT7-47" target="-iWegg6A6AynjhNWiqT7-34" edge="1">
          <mxGeometry relative="1" as="geometry">
            <mxPoint x="135" y="410" as="targetPoint" />
            <Array as="points">
              <mxPoint x="455" y="650" />
              <mxPoint x="125" y="650" />
            </Array>
          </mxGeometry>
        </mxCell>
        <mxCell id="-iWegg6A6AynjhNWiqT7-29" value="დიახ" style="edgeLabel;html=1;align=center;verticalAlign=middle;resizable=0;points=[];fontColor=#006633;fontStyle=1" parent="-iWegg6A6AynjhNWiqT7-28" vertex="1" connectable="0">
          <mxGeometry x="-0.7911" y="-1" relative="1" as="geometry">
            <mxPoint x="56" y="-9" as="offset" />
          </mxGeometry>
        </mxCell>
        <mxCell id="-iWegg6A6AynjhNWiqT7-30" style="edgeStyle=orthogonalEdgeStyle;rounded=0;orthogonalLoop=1;jettySize=auto;html=1;exitX=0.5;exitY=1;exitDx=0;exitDy=0;exitPerimeter=0;entryX=1;entryY=0.5;entryDx=0;entryDy=0;entryPerimeter=0;" parent="-iWegg6A6AynjhNWiqT7-25" source="-iWegg6A6AynjhNWiqT7-43" target="-iWegg6A6AynjhNWiqT7-34" edge="1">
          <mxGeometry relative="1" as="geometry">
            <Array as="points">
              <mxPoint x="285" y="590" />
              <mxPoint x="191" y="590" />
              <mxPoint x="191" y="400" />
            </Array>
            <mxPoint x="90" y="560" as="targetPoint" />
          </mxGeometry>
        </mxCell>
        <mxCell id="-iWegg6A6AynjhNWiqT7-31" value="დიახ" style="edgeLabel;html=1;align=center;verticalAlign=middle;resizable=0;points=[];fontColor=#006633;fontStyle=1" parent="-iWegg6A6AynjhNWiqT7-30" vertex="1" connectable="0">
          <mxGeometry x="-0.8157" relative="1" as="geometry">
            <mxPoint x="25" y="-8" as="offset" />
          </mxGeometry>
        </mxCell>
        <mxCell id="yiXUlI7e1qbhI_V3_wHB-3" style="edgeStyle=orthogonalEdgeStyle;rounded=0;orthogonalLoop=1;jettySize=auto;html=1;startArrow=none;startFill=0;entryX=1;entryY=0.5;entryDx=0;entryDy=0;" parent="-iWegg6A6AynjhNWiqT7-25" source="-iWegg6A6AynjhNWiqT7-47" target="-iWegg6A6AynjhNWiqT7-38" edge="1">
          <mxGeometry relative="1" as="geometry">
            <mxPoint x="520" y="590" as="targetPoint" />
            <Array as="points">
              <mxPoint x="510" y="595" />
              <mxPoint x="510" y="670" />
            </Array>
          </mxGeometry>
        </mxCell>
        <mxCell id="yiXUlI7e1qbhI_V3_wHB-4" value="არა" style="edgeLabel;html=1;align=center;verticalAlign=middle;resizable=0;points=[];fontStyle=1;fontColor=#990000;" parent="yiXUlI7e1qbhI_V3_wHB-3" vertex="1" connectable="0">
          <mxGeometry x="-0.7715" y="-1" relative="1" as="geometry">
            <mxPoint x="-9" y="-48" as="offset" />
          </mxGeometry>
        </mxCell>
        <mxCell id="-iWegg6A6AynjhNWiqT7-53" style="edgeStyle=orthogonalEdgeStyle;rounded=0;orthogonalLoop=1;jettySize=auto;html=1;fontColor=#006633;entryX=0.5;entryY=0;entryDx=0;entryDy=0;entryPerimeter=0;exitX=0;exitY=0.5;exitDx=0;exitDy=0;exitPerimeter=0;" parent="-iWegg6A6AynjhNWiqT7-25" source="-iWegg6A6AynjhNWiqT7-42" target="-iWegg6A6AynjhNWiqT7-34" edge="1">
          <mxGeometry relative="1" as="geometry">
            <mxPoint x="-290" y="310" as="targetPoint" />
            <Array as="points">
              <mxPoint x="125" y="225" />
            </Array>
          </mxGeometry>
        </mxCell>
        <mxCell id="-iWegg6A6AynjhNWiqT7-54" value="დიახ" style="edgeLabel;html=1;align=center;verticalAlign=middle;resizable=0;points=[];fontColor=#006633;" parent="-iWegg6A6AynjhNWiqT7-53" vertex="1" connectable="0">
          <mxGeometry x="-0.9268" relative="1" as="geometry">
            <mxPoint x="-22" y="15" as="offset" />
          </mxGeometry>
        </mxCell>
        <mxCell id="-iWegg6A6AynjhNWiqT7-32" value="TPS ოპერაციები" style="swimlane;html=1;startSize=40;" parent="-iWegg6A6AynjhNWiqT7-25" vertex="1">
          <mxGeometry y="20" width="210" height="740" as="geometry" />
        </mxCell>
        <mxCell id="-iWegg6A6AynjhNWiqT7-34" value="" style="points=[[0.145,0.145,0],[0.5,0,0],[0.855,0.145,0],[1,0.5,0],[0.855,0.855,0],[0.5,1,0],[0.145,0.855,0],[0,0.5,0]];shape=mxgraph.bpmn.event;html=1;verticalLabelPosition=bottom;labelBackgroundColor=#ffffff;verticalAlign=top;align=center;perimeter=ellipsePerimeter;outlineConnect=0;aspect=fixed;outline=throwing;symbol=general;strokeColor=#006633;" parent="-iWegg6A6AynjhNWiqT7-32" vertex="1">
          <mxGeometry x="100" y="354" width="50" height="50" as="geometry" />
        </mxCell>
        <mxCell id="Vs3i3zyh3Ip8OdOaDYS_-2" style="edgeStyle=orthogonalEdgeStyle;rounded=0;orthogonalLoop=1;jettySize=auto;html=1;fontColor=#990000;startArrow=none;startFill=0;" parent="-iWegg6A6AynjhNWiqT7-32" source="-iWegg6A6AynjhNWiqT7-38" target="Vs3i3zyh3Ip8OdOaDYS_-1" edge="1">
          <mxGeometry relative="1" as="geometry" />
        </mxCell>
        <mxCell id="-iWegg6A6AynjhNWiqT7-38" value="&lt;b&gt;შეთანხმების დასრულება&lt;/b&gt;" style="rounded=1;whiteSpace=wrap;html=1;labelBackgroundColor=none;fontColor=#330000;arcSize=24;" parent="-iWegg6A6AynjhNWiqT7-32" vertex="1">
          <mxGeometry x="20" y="630" width="100" height="40" as="geometry" />
        </mxCell>
        <mxCell id="Vs3i3zyh3Ip8OdOaDYS_-1" value="" style="points=[[0.145,0.145,0],[0.5,0,0],[0.855,0.145,0],[1,0.5,0],[0.855,0.855,0],[0.5,1,0],[0.145,0.855,0],[0,0.5,0]];shape=mxgraph.bpmn.event;html=1;verticalLabelPosition=bottom;labelBackgroundColor=#ffffff;verticalAlign=top;align=center;perimeter=ellipsePerimeter;outlineConnect=0;aspect=fixed;outline=end;symbol=terminate2;strokeColor=#CC0000;" parent="-iWegg6A6AynjhNWiqT7-32" vertex="1">
          <mxGeometry x="45" y="530" width="50" height="50" as="geometry" />
        </mxCell>
        <mxCell id="-iWegg6A6AynjhNWiqT7-41" value="&lt;b style=&quot;border-color: var(--border-color); color: rgb(0, 79, 40);&quot;&gt;TPS&lt;br style=&quot;border-color: var(--border-color);&quot;&gt;გარიგება&lt;/b&gt;" style="swimlane;html=1;startSize=40;" parent="-iWegg6A6AynjhNWiqT7-25" vertex="1">
          <mxGeometry x="210" y="20" width="340" height="740" as="geometry" />
        </mxCell>
        <mxCell id="-iWegg6A6AynjhNWiqT7-42" value="" style="points=[[0.25,0.25,0],[0.5,0,0],[0.75,0.25,0],[1,0.5,0],[0.75,0.75,0],[0.5,1,0],[0.25,0.75,0],[0,0.5,0]];shape=mxgraph.bpmn.gateway2;html=1;verticalLabelPosition=bottom;labelBackgroundColor=#ffffff;verticalAlign=top;align=center;perimeter=rhombusPerimeter;outlineConnect=0;outline=none;symbol=none;gwType=exclusive;" parent="-iWegg6A6AynjhNWiqT7-41" vertex="1">
          <mxGeometry x="50" y="180" width="50" height="50" as="geometry" />
        </mxCell>
        <mxCell id="-iWegg6A6AynjhNWiqT7-43" value="" style="points=[[0.25,0.25,0],[0.5,0,0],[0.75,0.25,0],[1,0.5,0],[0.75,0.75,0],[0.5,1,0],[0.25,0.75,0],[0,0.5,0]];shape=mxgraph.bpmn.gateway2;html=1;verticalLabelPosition=bottom;labelBackgroundColor=#ffffff;verticalAlign=top;align=center;perimeter=rhombusPerimeter;outlineConnect=0;outline=none;symbol=none;gwType=exclusive;fontColor=#CC0000;" parent="-iWegg6A6AynjhNWiqT7-41" vertex="1">
          <mxGeometry x="50" y="470" width="50" height="50" as="geometry" />
        </mxCell>
        <mxCell id="-iWegg6A6AynjhNWiqT7-44" value="არა" style="edgeStyle=orthogonalEdgeStyle;rounded=0;orthogonalLoop=1;jettySize=auto;html=1;fontColor=#CC0000;fontStyle=1;entryX=0.5;entryY=0;entryDx=0;entryDy=0;entryPerimeter=0;exitX=1;exitY=0.5;exitDx=0;exitDy=0;exitPerimeter=0;" parent="-iWegg6A6AynjhNWiqT7-41" source="-iWegg6A6AynjhNWiqT7-43" target="-iWegg6A6AynjhNWiqT7-47" edge="1">
          <mxGeometry x="-0.6667" y="-15" relative="1" as="geometry">
            <mxPoint x="375" y="329" as="targetPoint" />
            <mxPoint as="offset" />
          </mxGeometry>
        </mxCell>
        <mxCell id="-iWegg6A6AynjhNWiqT7-47" value="" style="points=[[0.25,0.25,0],[0.5,0,0],[0.75,0.25,0],[1,0.5,0],[0.75,0.75,0],[0.5,1,0],[0.25,0.75,0],[0,0.5,0]];shape=mxgraph.bpmn.gateway2;html=1;verticalLabelPosition=bottom;labelBackgroundColor=#ffffff;verticalAlign=top;align=center;perimeter=rhombusPerimeter;outlineConnect=0;outline=none;symbol=none;gwType=exclusive;fontColor=#006633;" parent="-iWegg6A6AynjhNWiqT7-41" vertex="1">
          <mxGeometry x="220" y="550" width="50" height="50" as="geometry" />
        </mxCell>
        <mxCell id="-iWegg6A6AynjhNWiqT7-48" value="&lt;b&gt;განაცხადის შევსება&lt;/b&gt;" style="rounded=1;whiteSpace=wrap;html=1;labelBackgroundColor=none;fontColor=#330000;" parent="-iWegg6A6AynjhNWiqT7-41" vertex="1">
          <mxGeometry x="25" y="60" width="100" height="50" as="geometry" />
        </mxCell>
        <mxCell id="-iWegg6A6AynjhNWiqT7-51" value="&lt;font color=&quot;#330000&quot;&gt;თანხა და კურსი ჯდება განაცხადის შემვსების ლიმიტებში&lt;br&gt;&lt;/font&gt;" style="text;html=1;strokeColor=none;fillColor=none;align=center;verticalAlign=middle;whiteSpace=wrap;rounded=0;fontColor=#CC0000;fontStyle=1" parent="-iWegg6A6AynjhNWiqT7-41" vertex="1">
          <mxGeometry x="100" y="170" width="160" height="60" as="geometry" />
        </mxCell>
        <mxCell id="-iWegg6A6AynjhNWiqT7-52" value="&lt;font color=&quot;#330000&quot;&gt;მეორე დონის&lt;br&gt;დასტური&lt;br&gt;&lt;/font&gt;" style="text;html=1;strokeColor=none;fillColor=none;align=center;verticalAlign=middle;whiteSpace=wrap;rounded=0;fontColor=#CC0000;fontStyle=1" parent="-iWegg6A6AynjhNWiqT7-41" vertex="1">
          <mxGeometry x="135" y="520" width="90" height="40" as="geometry" />
        </mxCell>
        <mxCell id="B9BTtffNBCWzX15zY59o-2" style="edgeStyle=orthogonalEdgeStyle;rounded=0;orthogonalLoop=1;jettySize=auto;html=1;" parent="-iWegg6A6AynjhNWiqT7-41" source="B9BTtffNBCWzX15zY59o-1" target="-iWegg6A6AynjhNWiqT7-48" edge="1">
          <mxGeometry relative="1" as="geometry" />
        </mxCell>
        <mxCell id="B9BTtffNBCWzX15zY59o-1" value="პროცესის დაწყება" style="points=[[0.145,0.145,0],[0.5,0,0],[0.855,0.145,0],[1,0.5,0],[0.855,0.855,0],[0.5,1,0],[0.145,0.855,0],[0,0.5,0]];shape=mxgraph.bpmn.event;html=1;verticalLabelPosition=bottom;labelBackgroundColor=#ffffff;verticalAlign=top;align=center;perimeter=ellipsePerimeter;outlineConnect=0;aspect=fixed;outline=standard;symbol=general;" parent="-iWegg6A6AynjhNWiqT7-41" vertex="1">
          <mxGeometry x="230" y="60" width="50" height="50" as="geometry" />
        </mxCell>
        <mxCell id="-iWegg6A6AynjhNWiqT7-45" value="&lt;font color=&quot;#330000&quot;&gt;თანხა და კურსი ჯდება&lt;br&gt;დელეგირებუი პირის ლიმიტებში&lt;br&gt;&lt;/font&gt;" style="text;html=1;strokeColor=none;fillColor=none;align=center;verticalAlign=middle;whiteSpace=wrap;rounded=0;fontColor=#CC0000;fontStyle=1" parent="-iWegg6A6AynjhNWiqT7-41" vertex="1">
          <mxGeometry x="100" y="430" width="140" height="60" as="geometry" />
        </mxCell>
        <mxCell id="-iWegg6A6AynjhNWiqT7-56" value="" style="edgeStyle=elbowEdgeStyle;fontSize=12;html=1;endFill=0;startFill=1;endSize=6;startSize=6;dashed=1;endArrow=none;startArrow=classic;rounded=0;entryX=0.5;entryY=1;entryDx=0;entryDy=0;exitX=0.5;exitY=0;exitDx=0;exitDy=0;exitPerimeter=0;" parent="-iWegg6A6AynjhNWiqT7-41" source="-iWegg6A6AynjhNWiqT7-42" target="-iWegg6A6AynjhNWiqT7-48" edge="1">
          <mxGeometry width="160" relative="1" as="geometry">
            <mxPoint x="-225.5" y="-16" as="sourcePoint" />
            <mxPoint x="-150" y="653" as="targetPoint" />
            <Array as="points">
              <mxPoint x="75" y="150" />
              <mxPoint x="90" y="130" />
              <mxPoint x="80" y="140" />
              <mxPoint x="100" y="160" />
              <mxPoint x="110" y="180" />
              <mxPoint x="110" y="140" />
              <mxPoint x="30" y="130" />
              <mxPoint x="10" y="130" />
              <mxPoint x="-200" y="93" />
              <mxPoint x="-200" y="63" />
              <mxPoint x="-200" y="33" />
              <mxPoint x="-210" y="3" />
              <mxPoint x="-170" y="103" />
              <mxPoint x="-110" y="143" />
              <mxPoint x="-70" y="673" />
              <mxPoint x="100" y="663" />
              <mxPoint x="250" y="653" />
              <mxPoint x="-340" y="583" />
              <mxPoint x="-230" y="663" />
              <mxPoint x="220" y="603" />
            </Array>
          </mxGeometry>
        </mxCell>
        <mxCell id="yiXUlI7e1qbhI_V3_wHB-5" style="edgeStyle=orthogonalEdgeStyle;rounded=0;orthogonalLoop=1;jettySize=auto;html=1;startArrow=none;startFill=0;entryX=0.5;entryY=0;entryDx=0;entryDy=0;entryPerimeter=0;exitX=0.5;exitY=1;exitDx=0;exitDy=0;exitPerimeter=0;" parent="-iWegg6A6AynjhNWiqT7-41" source="-iWegg6A6AynjhNWiqT7-42" target="USwKGhKlE1OgOJ4GCldN-2" edge="1">
          <mxGeometry relative="1" as="geometry">
            <mxPoint x="320" y="590" as="targetPoint" />
            <Array as="points">
              <mxPoint x="75" y="240" />
              <mxPoint x="75" y="240" />
            </Array>
          </mxGeometry>
        </mxCell>
        <mxCell id="yiXUlI7e1qbhI_V3_wHB-6" value="არა" style="edgeLabel;html=1;align=center;verticalAlign=middle;resizable=0;points=[];fontStyle=1;fontColor=#990000;" parent="yiXUlI7e1qbhI_V3_wHB-5" vertex="1" connectable="0">
          <mxGeometry x="-0.7192" relative="1" as="geometry">
            <mxPoint x="20" y="12" as="offset" />
          </mxGeometry>
        </mxCell>
        <mxCell id="USwKGhKlE1OgOJ4GCldN-1" value="&lt;font color=&quot;#330000&quot;&gt;დელეგირებული&lt;br&gt;პირი&lt;br&gt;&lt;/font&gt;" style="text;html=1;strokeColor=none;fillColor=none;align=center;verticalAlign=middle;whiteSpace=wrap;rounded=0;fontColor=#CC0000;fontStyle=1" parent="-iWegg6A6AynjhNWiqT7-41" vertex="1">
          <mxGeometry x="85" y="300" width="120" height="40" as="geometry" />
        </mxCell>
        <mxCell id="USwKGhKlE1OgOJ4GCldN-2" value="" style="points=[[0.25,0.25,0],[0.5,0,0],[0.75,0.25,0],[1,0.5,0],[0.75,0.75,0],[0.5,1,0],[0.25,0.75,0],[0,0.5,0]];shape=mxgraph.bpmn.gateway2;html=1;verticalLabelPosition=bottom;labelBackgroundColor=#ffffff;verticalAlign=top;align=center;perimeter=rhombusPerimeter;outlineConnect=0;outline=none;symbol=none;gwType=exclusive;" parent="-iWegg6A6AynjhNWiqT7-41" vertex="1">
          <mxGeometry x="50" y="320" width="50" height="50" as="geometry" />
        </mxCell>
        <mxCell id="USwKGhKlE1OgOJ4GCldN-4" style="edgeStyle=orthogonalEdgeStyle;rounded=0;orthogonalLoop=1;jettySize=auto;html=1;entryX=0.5;entryY=0;entryDx=0;entryDy=0;entryPerimeter=0;startArrow=none;startFill=0;" parent="-iWegg6A6AynjhNWiqT7-41" source="USwKGhKlE1OgOJ4GCldN-2" target="-iWegg6A6AynjhNWiqT7-43" edge="1">
          <mxGeometry relative="1" as="geometry" />
        </mxCell>
        <mxCell id="USwKGhKlE1OgOJ4GCldN-7" value="დიახ" style="edgeLabel;html=1;align=center;verticalAlign=middle;resizable=0;points=[];fontStyle=1;fontColor=#006633;" parent="USwKGhKlE1OgOJ4GCldN-4" vertex="1" connectable="0">
          <mxGeometry x="-0.3686" y="1" relative="1" as="geometry">
            <mxPoint x="-26" y="-4" as="offset" />
          </mxGeometry>
        </mxCell>
        <mxCell id="USwKGhKlE1OgOJ4GCldN-5" style="edgeStyle=orthogonalEdgeStyle;rounded=0;orthogonalLoop=1;jettySize=auto;html=1;startArrow=none;startFill=0;entryX=0.5;entryY=1;entryDx=0;entryDy=0;" parent="-iWegg6A6AynjhNWiqT7-25" source="USwKGhKlE1OgOJ4GCldN-2" target="-iWegg6A6AynjhNWiqT7-38" edge="1">
          <mxGeometry relative="1" as="geometry">
            <mxPoint x="521" y="720" as="targetPoint" />
            <Array as="points">
              <mxPoint x="531" y="365" />
              <mxPoint x="531" y="710" />
              <mxPoint x="70" y="710" />
            </Array>
          </mxGeometry>
        </mxCell>
        <mxCell id="USwKGhKlE1OgOJ4GCldN-6" value="არა" style="edgeLabel;html=1;align=center;verticalAlign=middle;resizable=0;points=[];fontColor=#990000;fontStyle=1" parent="USwKGhKlE1OgOJ4GCldN-5" vertex="1" connectable="0">
          <mxGeometry x="-0.7022" y="1" relative="1" as="geometry">
            <mxPoint x="18" y="-14" as="offset" />
          </mxGeometry>
        </mxCell>
        <UserObject label="SuggestedRate" id="B9BTtffNBCWzX15zY59o-3">
          <mxCell style="swimlane;fontStyle=0;childLayout=stackLayout;horizontal=1;startSize=26;fillColor=none;horizontalStack=0;resizeParent=1;resizeParentMax=0;resizeLast=0;collapsible=1;marginBottom=0;html=1;fontColor=#000000;" parent="1" vertex="1">
            <mxGeometry x="280" y="50" width="160" height="208" as="geometry" />
          </mxCell>
        </UserObject>
        <mxCell id="B9BTtffNBCWzX15zY59o-5" value="ClientID" style="text;strokeColor=none;fillColor=none;align=left;verticalAlign=top;spacingLeft=4;spacingRight=4;overflow=hidden;rotatable=0;points=[[0,0.5],[1,0.5]];portConstraint=eastwest;whiteSpace=wrap;html=1;fontColor=#000000;" parent="B9BTtffNBCWzX15zY59o-3" vertex="1">
          <mxGeometry y="26" width="160" height="26" as="geometry" />
        </mxCell>
        <mxCell id="B9BTtffNBCWzX15zY59o-34" value="BranchID?" style="text;strokeColor=none;fillColor=none;align=left;verticalAlign=top;spacingLeft=4;spacingRight=4;overflow=hidden;rotatable=0;points=[[0,0.5],[1,0.5]];portConstraint=eastwest;whiteSpace=wrap;html=1;fontColor=#000000;" parent="B9BTtffNBCWzX15zY59o-3" vertex="1">
          <mxGeometry y="52" width="160" height="26" as="geometry" />
        </mxCell>
        <mxCell id="B9BTtffNBCWzX15zY59o-9" value="BuyCurrency" style="text;strokeColor=none;fillColor=none;align=left;verticalAlign=top;spacingLeft=4;spacingRight=4;overflow=hidden;rotatable=0;points=[[0,0.5],[1,0.5]];portConstraint=eastwest;whiteSpace=wrap;html=1;fontColor=#000000;" parent="B9BTtffNBCWzX15zY59o-3" vertex="1">
          <mxGeometry y="78" width="160" height="26" as="geometry" />
        </mxCell>
        <mxCell id="B9BTtffNBCWzX15zY59o-10" value="SellCurrency" style="text;strokeColor=none;fillColor=none;align=left;verticalAlign=top;spacingLeft=4;spacingRight=4;overflow=hidden;rotatable=0;points=[[0,0.5],[1,0.5]];portConstraint=eastwest;whiteSpace=wrap;html=1;fontColor=#000000;" parent="B9BTtffNBCWzX15zY59o-3" vertex="1">
          <mxGeometry y="104" width="160" height="26" as="geometry" />
        </mxCell>
        <mxCell id="B9BTtffNBCWzX15zY59o-11" value="Amount" style="text;strokeColor=none;fillColor=none;align=left;verticalAlign=top;spacingLeft=4;spacingRight=4;overflow=hidden;rotatable=0;points=[[0,0.5],[1,0.5]];portConstraint=eastwest;whiteSpace=wrap;html=1;fontColor=#000000;" parent="B9BTtffNBCWzX15zY59o-3" vertex="1">
          <mxGeometry y="130" width="160" height="26" as="geometry" />
        </mxCell>
        <mxCell id="B9BTtffNBCWzX15zY59o-12" value="ExchangeType" style="text;strokeColor=none;fillColor=none;align=left;verticalAlign=top;spacingLeft=4;spacingRight=4;overflow=hidden;rotatable=0;points=[[0,0.5],[1,0.5]];portConstraint=eastwest;whiteSpace=wrap;html=1;fontColor=#000000;" parent="B9BTtffNBCWzX15zY59o-3" vertex="1">
          <mxGeometry y="156" width="160" height="26" as="geometry" />
        </mxCell>
        <mxCell id="B9BTtffNBCWzX15zY59o-13" value="RateConversionType" style="text;strokeColor=none;fillColor=none;align=left;verticalAlign=top;spacingLeft=4;spacingRight=4;overflow=hidden;rotatable=0;points=[[0,0.5],[1,0.5]];portConstraint=eastwest;whiteSpace=wrap;html=1;fontColor=#000000;" parent="B9BTtffNBCWzX15zY59o-3" vertex="1">
          <mxGeometry y="182" width="160" height="26" as="geometry" />
        </mxCell>
        <mxCell id="B9BTtffNBCWzX15zY59o-33" style="edgeStyle=orthogonalEdgeStyle;rounded=0;orthogonalLoop=1;jettySize=auto;html=1;exitX=0;exitY=0.5;exitDx=0;exitDy=0;entryX=1;entryY=0.5;entryDx=0;entryDy=0;" parent="1" source="B9BTtffNBCWzX15zY59o-11" target="ckAe8WCRwSa0hV0LBj_C-1" edge="1">
          <mxGeometry relative="1" as="geometry">
            <mxPoint x="410" y="100" as="sourcePoint" />
            <mxPoint x="200" y="190" as="targetPoint" />
            <Array as="points">
              <mxPoint x="280" y="193" />
              <mxPoint x="280" y="190" />
              <mxPoint x="270" y="190" />
            </Array>
          </mxGeometry>
        </mxCell>
        <mxCell id="yiXUlI7e1qbhI_V3_wHB-1" style="edgeStyle=orthogonalEdgeStyle;rounded=0;orthogonalLoop=1;jettySize=auto;html=1;entryX=1;entryY=0.5;entryDx=0;entryDy=0;startArrow=none;startFill=0;exitX=0;exitY=0.5;exitDx=0;exitDy=0;exitPerimeter=0;" parent="1" source="-iWegg6A6AynjhNWiqT7-34" target="B9BTtffNBCWzX15zY59o-10" edge="1">
          <mxGeometry relative="1" as="geometry">
            <Array as="points">
              <mxPoint x="560" y="439" />
              <mxPoint x="560" y="167" />
            </Array>
          </mxGeometry>
        </mxCell>
        <mxCell id="-iWegg6A6AynjhNWiqT7-70" style="edgeStyle=orthogonalEdgeStyle;rounded=0;orthogonalLoop=1;jettySize=auto;html=1;entryX=0;entryY=0.5;entryDx=0;entryDy=0;fontColor=#990000;exitX=0.5;exitY=1;exitDx=0;exitDy=0;dashed=1;" parent="1" source="-iWegg6A6AynjhNWiqT7-20" target="-iWegg6A6AynjhNWiqT7-38" edge="1">
          <mxGeometry relative="1" as="geometry">
            <mxPoint x="200" y="517" as="sourcePoint" />
            <Array as="points" />
            <mxPoint x="290" y="590" as="targetPoint" />
          </mxGeometry>
        </mxCell>
      </root>
    </mxGraphModel>
  </diagram>
  <diagram id="7giaEgcTKFILEnfCVy80" name="შეთანხმების გაუქმება">
    <mxGraphModel dx="1219" dy="561" grid="1" gridSize="10" guides="1" tooltips="1" connect="1" arrows="1" fold="1" page="1" pageScale="1" pageWidth="1169" pageHeight="827" math="0" shadow="0">
      <root>
        <mxCell id="0" />
        <mxCell id="1" parent="0" />
        <mxCell id="04HI86VPgtiidFSPBZR_-1" value="&lt;b&gt;ბიზნეს ინტერნეტ ბანკი&lt;/b&gt;" style="swimlane;html=1;startSize=50;fontStyle=0;collapsible=0;horizontal=1;swimlaneLine=1;strokeWidth=2;swimlaneFillColor=#ffffff;whiteSpace=wrap;" parent="1" vertex="1">
          <mxGeometry x="20" y="30" width="190" height="770" as="geometry" />
        </mxCell>
        <mxCell id="04HI86VPgtiidFSPBZR_-4" value="&lt;b style=&quot;border-color: var(--border-color);&quot;&gt;კონვერტაციის გატარების გაუქმება&lt;/b&gt;" style="rounded=1;whiteSpace=wrap;html=1;labelBackgroundColor=none;fontColor=#330000;" parent="04HI86VPgtiidFSPBZR_-1" vertex="1">
          <mxGeometry x="40" y="320" width="120" height="50" as="geometry" />
        </mxCell>
        <mxCell id="6w3wbsPmXBSh9RNu0SIm-4" style="edgeStyle=orthogonalEdgeStyle;rounded=0;orthogonalLoop=1;jettySize=auto;html=1;fontColor=#990000;startArrow=none;startFill=0;" parent="04HI86VPgtiidFSPBZR_-1" source="6w3wbsPmXBSh9RNu0SIm-2" target="04HI86VPgtiidFSPBZR_-4" edge="1">
          <mxGeometry relative="1" as="geometry" />
        </mxCell>
        <mxCell id="6w3wbsPmXBSh9RNu0SIm-5" value="არა" style="edgeLabel;html=1;align=center;verticalAlign=middle;resizable=0;points=[];fontColor=#990000;fontStyle=1" parent="6w3wbsPmXBSh9RNu0SIm-4" vertex="1" connectable="0">
          <mxGeometry x="-0.2814" y="-1" relative="1" as="geometry">
            <mxPoint x="16" y="-14" as="offset" />
          </mxGeometry>
        </mxCell>
        <mxCell id="6w3wbsPmXBSh9RNu0SIm-2" value="" style="points=[[0.25,0.25,0],[0.5,0,0],[0.75,0.25,0],[1,0.5,0],[0.75,0.75,0],[0.5,1,0],[0.25,0.75,0],[0,0.5,0]];shape=mxgraph.bpmn.gateway2;html=1;verticalLabelPosition=bottom;labelBackgroundColor=#ffffff;verticalAlign=top;align=center;perimeter=rhombusPerimeter;outlineConnect=0;outline=none;symbol=none;gwType=exclusive;" parent="04HI86VPgtiidFSPBZR_-1" vertex="1">
          <mxGeometry x="75" y="210" width="50" height="50" as="geometry" />
        </mxCell>
        <mxCell id="6w3wbsPmXBSh9RNu0SIm-3" value="&lt;font color=&quot;#330000&quot;&gt;კონვერტაცია დასრულებულია&lt;br&gt;&lt;/font&gt;" style="text;html=1;strokeColor=none;fillColor=none;align=center;verticalAlign=middle;whiteSpace=wrap;rounded=0;fontColor=#CC0000;fontStyle=1" parent="04HI86VPgtiidFSPBZR_-1" vertex="1">
          <mxGeometry x="40" y="140" width="120" height="40" as="geometry" />
        </mxCell>
        <mxCell id="04HI86VPgtiidFSPBZR_-11" value="TPS" style="swimlane;html=1;childLayout=stackLayout;resizeParent=1;resizeParentMax=0;startSize=20;whiteSpace=wrap;" parent="1" vertex="1">
          <mxGeometry x="420" y="23" width="590" height="777" as="geometry" />
        </mxCell>
        <mxCell id="04HI86VPgtiidFSPBZR_-20" value="TPS ოპერაციები" style="swimlane;html=1;startSize=40;perimeterSpacing=1;strokeColor=#660000;" parent="04HI86VPgtiidFSPBZR_-11" vertex="1">
          <mxGeometry y="20" width="210" height="757" as="geometry" />
        </mxCell>
        <mxCell id="04HI86VPgtiidFSPBZR_-24" value="" style="points=[[0.145,0.145,0],[0.5,0,0],[0.855,0.145,0],[1,0.5,0],[0.855,0.855,0],[0.5,1,0],[0.145,0.855,0],[0,0.5,0]];shape=mxgraph.bpmn.event;html=1;verticalLabelPosition=bottom;labelBackgroundColor=#ffffff;verticalAlign=top;align=center;perimeter=ellipsePerimeter;outlineConnect=0;aspect=fixed;outline=end;symbol=terminate2;strokeColor=#CC0000;" parent="04HI86VPgtiidFSPBZR_-20" vertex="1">
          <mxGeometry x="65" y="637" width="50" height="50" as="geometry" />
        </mxCell>
        <mxCell id="04HI86VPgtiidFSPBZR_-2" value="" style="points=[[0.145,0.145,0],[0.5,0,0],[0.855,0.145,0],[1,0.5,0],[0.855,0.855,0],[0.5,1,0],[0.145,0.855,0],[0,0.5,0]];shape=mxgraph.bpmn.event;html=1;verticalLabelPosition=bottom;labelBackgroundColor=#ffffff;verticalAlign=top;align=center;perimeter=ellipsePerimeter;outlineConnect=0;aspect=fixed;outline=end;symbol=terminate2;fontColor=#000000;strokeColor=#006633;" parent="04HI86VPgtiidFSPBZR_-20" vertex="1">
          <mxGeometry x="65" y="527" width="50" height="50" as="geometry" />
        </mxCell>
        <mxCell id="6w3wbsPmXBSh9RNu0SIm-12" style="edgeStyle=orthogonalEdgeStyle;rounded=0;orthogonalLoop=1;jettySize=auto;html=1;fontColor=#990000;startArrow=none;startFill=0;" parent="04HI86VPgtiidFSPBZR_-20" source="6w3wbsPmXBSh9RNu0SIm-9" target="04HI86VPgtiidFSPBZR_-2" edge="1">
          <mxGeometry relative="1" as="geometry" />
        </mxCell>
        <mxCell id="6w3wbsPmXBSh9RNu0SIm-9" value="სტატუსის შეცვლა" style="rounded=1;whiteSpace=wrap;html=1;labelBackgroundColor=none;fontColor=#330000;fillStyle=auto;strokeWidth=1;" parent="04HI86VPgtiidFSPBZR_-20" vertex="1">
          <mxGeometry x="35" y="437" width="110" height="50" as="geometry" />
        </mxCell>
        <mxCell id="6w3wbsPmXBSh9RNu0SIm-16" value="პროცესი დასრულდა წარმატებით" style="text;html=1;strokeColor=none;fillColor=none;align=center;verticalAlign=middle;whiteSpace=wrap;rounded=0;fontColor=#006633;" parent="04HI86VPgtiidFSPBZR_-20" vertex="1">
          <mxGeometry x="130" y="537" width="60" height="30" as="geometry" />
        </mxCell>
        <mxCell id="6w3wbsPmXBSh9RNu0SIm-17" value="კონვერტაცია დარჩა ძალაში" style="text;html=1;strokeColor=none;fillColor=none;align=center;verticalAlign=middle;whiteSpace=wrap;rounded=0;fontColor=#660000;" parent="04HI86VPgtiidFSPBZR_-20" vertex="1">
          <mxGeometry x="130" y="697" width="60" height="30" as="geometry" />
        </mxCell>
        <mxCell id="04HI86VPgtiidFSPBZR_-43" style="edgeStyle=orthogonalEdgeStyle;rounded=0;orthogonalLoop=1;jettySize=auto;html=1;startArrow=none;startFill=0;entryX=1;entryY=0.5;entryDx=0;entryDy=0;entryPerimeter=0;exitX=0.5;exitY=1;exitDx=0;exitDy=0;exitPerimeter=0;" parent="04HI86VPgtiidFSPBZR_-11" source="04HI86VPgtiidFSPBZR_-26" target="04HI86VPgtiidFSPBZR_-24" edge="1">
          <mxGeometry relative="1" as="geometry">
            <mxPoint x="70" y="690" as="targetPoint" />
            <Array as="points">
              <mxPoint x="355" y="682" />
            </Array>
            <mxPoint x="340" y="247" as="sourcePoint" />
          </mxGeometry>
        </mxCell>
        <mxCell id="04HI86VPgtiidFSPBZR_-44" value="არა" style="edgeLabel;html=1;align=center;verticalAlign=middle;resizable=0;points=[];fontColor=#990000;fontStyle=1" parent="04HI86VPgtiidFSPBZR_-43" vertex="1" connectable="0">
          <mxGeometry x="-0.7022" y="1" relative="1" as="geometry">
            <mxPoint x="18" y="-14" as="offset" />
          </mxGeometry>
        </mxCell>
        <mxCell id="04HI86VPgtiidFSPBZR_-25" value="&lt;b style=&quot;border-color: var(--border-color); color: rgb(0, 79, 40);&quot;&gt;TPS&lt;br style=&quot;border-color: var(--border-color);&quot;&gt;გარიგება&lt;/b&gt;" style="swimlane;html=1;startSize=40;" parent="04HI86VPgtiidFSPBZR_-11" vertex="1">
          <mxGeometry x="210" y="20" width="380" height="757" as="geometry" />
        </mxCell>
        <mxCell id="04HI86VPgtiidFSPBZR_-26" value="" style="points=[[0.25,0.25,0],[0.5,0,0],[0.75,0.25,0],[1,0.5,0],[0.75,0.75,0],[0.5,1,0],[0.25,0.75,0],[0,0.5,0]];shape=mxgraph.bpmn.gateway2;html=1;verticalLabelPosition=bottom;labelBackgroundColor=#ffffff;verticalAlign=top;align=center;perimeter=rhombusPerimeter;outlineConnect=0;outline=none;symbol=none;gwType=exclusive;" parent="04HI86VPgtiidFSPBZR_-25" vertex="1">
          <mxGeometry x="120" y="353.5" width="50" height="50" as="geometry" />
        </mxCell>
        <mxCell id="04HI86VPgtiidFSPBZR_-30" value="&lt;b&gt;ძებნა შეთანხმებულ მაგრამ დაუსრულებელ განაცხადებში&lt;/b&gt;" style="rounded=1;whiteSpace=wrap;html=1;labelBackgroundColor=none;fontColor=#330000;" parent="04HI86VPgtiidFSPBZR_-25" vertex="1">
          <mxGeometry x="72.5" y="77" width="145" height="50" as="geometry" />
        </mxCell>
        <mxCell id="04HI86VPgtiidFSPBZR_-32" value="&lt;font color=&quot;#330000&quot;&gt;მეორე დონის ვალიდაცია, მაღალი დონის&lt;br&gt;დელეგირებული პირი&lt;br&gt;&lt;/font&gt;" style="text;html=1;strokeColor=none;fillColor=none;align=center;verticalAlign=middle;whiteSpace=wrap;rounded=0;fontColor=#CC0000;fontStyle=1" parent="04HI86VPgtiidFSPBZR_-25" vertex="1">
          <mxGeometry x="180" y="350.5" width="170" height="53" as="geometry" />
        </mxCell>
        <mxCell id="04HI86VPgtiidFSPBZR_-33" style="edgeStyle=orthogonalEdgeStyle;rounded=0;orthogonalLoop=1;jettySize=auto;html=1;" parent="04HI86VPgtiidFSPBZR_-25" source="04HI86VPgtiidFSPBZR_-34" target="04HI86VPgtiidFSPBZR_-30" edge="1">
          <mxGeometry relative="1" as="geometry" />
        </mxCell>
        <mxCell id="04HI86VPgtiidFSPBZR_-34" value="პროცესის დაწყება" style="points=[[0.145,0.145,0],[0.5,0,0],[0.855,0.145,0],[1,0.5,0],[0.855,0.855,0],[0.5,1,0],[0.145,0.855,0],[0,0.5,0]];shape=mxgraph.bpmn.event;html=1;verticalLabelPosition=bottom;labelBackgroundColor=#ffffff;verticalAlign=top;align=center;perimeter=ellipsePerimeter;outlineConnect=0;aspect=fixed;outline=standard;symbol=general;" parent="04HI86VPgtiidFSPBZR_-25" vertex="1">
          <mxGeometry x="290" y="77" width="50" height="50" as="geometry" />
        </mxCell>
        <mxCell id="04HI86VPgtiidFSPBZR_-36" value="" style="edgeStyle=elbowEdgeStyle;fontSize=12;html=1;endFill=0;startFill=1;endSize=6;startSize=6;endArrow=none;startArrow=classic;rounded=0;entryX=0.5;entryY=1;entryDx=0;entryDy=0;exitX=0.5;exitY=0;exitDx=0;exitDy=0;exitPerimeter=0;" parent="04HI86VPgtiidFSPBZR_-25" source="qTWeQ1gmelFaLsGnsEnV-2" target="04HI86VPgtiidFSPBZR_-30" edge="1">
          <mxGeometry width="160" relative="1" as="geometry">
            <mxPoint x="145" y="207" as="sourcePoint" />
            <mxPoint x="-150" y="653" as="targetPoint" />
            <Array as="points">
              <mxPoint x="145" y="147" />
              <mxPoint x="150" y="157" />
              <mxPoint x="90" y="130" />
              <mxPoint x="80" y="140" />
              <mxPoint x="100" y="160" />
              <mxPoint x="110" y="180" />
              <mxPoint x="110" y="140" />
              <mxPoint x="30" y="130" />
              <mxPoint x="10" y="130" />
              <mxPoint x="-200" y="93" />
              <mxPoint x="-200" y="63" />
              <mxPoint x="-200" y="33" />
              <mxPoint x="-210" y="3" />
              <mxPoint x="-170" y="103" />
              <mxPoint x="-110" y="143" />
              <mxPoint x="-70" y="673" />
              <mxPoint x="100" y="663" />
              <mxPoint x="250" y="653" />
              <mxPoint x="-340" y="583" />
              <mxPoint x="-230" y="663" />
              <mxPoint x="220" y="603" />
            </Array>
          </mxGeometry>
        </mxCell>
        <mxCell id="qTWeQ1gmelFaLsGnsEnV-3" value="დიახ" style="edgeStyle=orthogonalEdgeStyle;rounded=0;orthogonalLoop=1;jettySize=auto;html=1;entryX=0.5;entryY=0;entryDx=0;entryDy=0;entryPerimeter=0;fontStyle=1;fontColor=#006633;" edge="1" parent="04HI86VPgtiidFSPBZR_-25" source="qTWeQ1gmelFaLsGnsEnV-2" target="04HI86VPgtiidFSPBZR_-26">
          <mxGeometry x="-0.305" y="25" relative="1" as="geometry">
            <Array as="points">
              <mxPoint x="145" y="297" />
              <mxPoint x="145" y="297" />
            </Array>
            <mxPoint y="-1" as="offset" />
          </mxGeometry>
        </mxCell>
        <mxCell id="qTWeQ1gmelFaLsGnsEnV-2" value="" style="points=[[0.25,0.25,0],[0.5,0,0],[0.75,0.25,0],[1,0.5,0],[0.75,0.75,0],[0.5,1,0],[0.25,0.75,0],[0,0.5,0]];shape=mxgraph.bpmn.gateway2;html=1;verticalLabelPosition=bottom;labelBackgroundColor=#ffffff;verticalAlign=top;align=center;perimeter=rhombusPerimeter;outlineConnect=0;outline=none;symbol=none;gwType=exclusive;" vertex="1" parent="04HI86VPgtiidFSPBZR_-25">
          <mxGeometry x="120" y="217" width="50" height="50" as="geometry" />
        </mxCell>
        <mxCell id="rqHGySLQDaCzu6r3ErJQ-1" value="&lt;font color=&quot;#330000&quot;&gt;პირველი დონის&lt;br&gt;ვალიდაცია, დელეგირებული პირი&lt;br&gt;&lt;/font&gt;" style="text;html=1;strokeColor=none;fillColor=none;align=center;verticalAlign=middle;whiteSpace=wrap;rounded=0;fontColor=#CC0000;fontStyle=1" vertex="1" parent="04HI86VPgtiidFSPBZR_-25">
          <mxGeometry x="180" y="197" width="160" height="53" as="geometry" />
        </mxCell>
        <UserObject label="CancellDeal" id="04HI86VPgtiidFSPBZR_-45">
          <mxCell style="swimlane;fontStyle=0;childLayout=stackLayout;horizontal=1;startSize=26;fillColor=none;horizontalStack=0;resizeParent=1;resizeParentMax=0;resizeLast=0;collapsible=1;marginBottom=0;html=1;fontColor=#000000;" parent="1" vertex="1">
            <mxGeometry x="240" y="240" width="160" height="52" as="geometry" />
          </mxCell>
        </UserObject>
        <mxCell id="04HI86VPgtiidFSPBZR_-46" value="RequestID" style="text;strokeColor=none;fillColor=none;align=left;verticalAlign=top;spacingLeft=4;spacingRight=4;overflow=hidden;rotatable=0;points=[[0,0.5],[1,0.5]];portConstraint=eastwest;whiteSpace=wrap;html=1;fontColor=#000000;" parent="04HI86VPgtiidFSPBZR_-45" vertex="1">
          <mxGeometry y="26" width="160" height="26" as="geometry" />
        </mxCell>
        <mxCell id="04HI86VPgtiidFSPBZR_-53" style="edgeStyle=orthogonalEdgeStyle;rounded=0;orthogonalLoop=1;jettySize=auto;html=1;exitX=-0.003;exitY=-0.115;exitDx=0;exitDy=0;entryX=1;entryY=0.5;entryDx=0;entryDy=0;exitPerimeter=0;entryPerimeter=0;" parent="1" source="04HI86VPgtiidFSPBZR_-46" target="6w3wbsPmXBSh9RNu0SIm-2" edge="1">
          <mxGeometry relative="1" as="geometry">
            <mxPoint x="280" y="167" as="sourcePoint" />
            <mxPoint x="210" y="189.5" as="targetPoint" />
            <Array as="points">
              <mxPoint x="239" y="265" />
            </Array>
          </mxGeometry>
        </mxCell>
        <mxCell id="04HI86VPgtiidFSPBZR_-3" style="edgeStyle=orthogonalEdgeStyle;rounded=0;orthogonalLoop=1;jettySize=auto;html=1;startArrow=none;startFill=0;entryX=0.5;entryY=0;entryDx=0;entryDy=0;exitX=0.5;exitY=1;exitDx=0;exitDy=0;" parent="1" source="04HI86VPgtiidFSPBZR_-4" target="6w3wbsPmXBSh9RNu0SIm-9" edge="1">
          <mxGeometry relative="1" as="geometry">
            <mxPoint x="210" y="520" as="targetPoint" />
            <Array as="points">
              <mxPoint x="120" y="440" />
              <mxPoint x="510" y="440" />
            </Array>
          </mxGeometry>
        </mxCell>
        <mxCell id="6w3wbsPmXBSh9RNu0SIm-10" style="edgeStyle=orthogonalEdgeStyle;rounded=0;orthogonalLoop=1;jettySize=auto;html=1;fontColor=#990000;startArrow=none;startFill=0;entryX=0;entryY=0.5;entryDx=0;entryDy=0;entryPerimeter=0;exitX=0;exitY=0.5;exitDx=0;exitDy=0;exitPerimeter=0;" parent="1" source="6w3wbsPmXBSh9RNu0SIm-2" target="04HI86VPgtiidFSPBZR_-24" edge="1">
          <mxGeometry relative="1" as="geometry">
            <mxPoint x="480" y="780" as="targetPoint" />
            <Array as="points">
              <mxPoint x="50" y="265" />
              <mxPoint x="50" y="705" />
            </Array>
          </mxGeometry>
        </mxCell>
        <mxCell id="6w3wbsPmXBSh9RNu0SIm-14" value="დიახ" style="edgeLabel;html=1;align=center;verticalAlign=middle;resizable=0;points=[];fontColor=#006633;fontStyle=1" parent="6w3wbsPmXBSh9RNu0SIm-10" vertex="1" connectable="0">
          <mxGeometry x="-0.2436" relative="1" as="geometry">
            <mxPoint x="20" y="-3" as="offset" />
          </mxGeometry>
        </mxCell>
        <mxCell id="04HI86VPgtiidFSPBZR_-18" style="edgeStyle=orthogonalEdgeStyle;rounded=0;orthogonalLoop=1;jettySize=auto;html=1;fontColor=#006633;entryX=0.99;entryY=-0.057;entryDx=0;entryDy=0;entryPerimeter=0;dashed=1;exitX=0;exitY=0.5;exitDx=0;exitDy=0;exitPerimeter=0;" parent="1" source="04HI86VPgtiidFSPBZR_-26" target="04HI86VPgtiidFSPBZR_-46" edge="1">
          <mxGeometry relative="1" as="geometry">
            <mxPoint x="545" y="303" as="targetPoint" />
            <Array as="points">
              <mxPoint x="680" y="421" />
              <mxPoint x="680" y="265" />
            </Array>
            <mxPoint x="730" y="420" as="sourcePoint" />
          </mxGeometry>
        </mxCell>
        <mxCell id="04HI86VPgtiidFSPBZR_-19" value="დიახ" style="edgeLabel;html=1;align=center;verticalAlign=middle;resizable=0;points=[];fontColor=#006633;" parent="04HI86VPgtiidFSPBZR_-18" vertex="1" connectable="0">
          <mxGeometry x="-0.9268" relative="1" as="geometry">
            <mxPoint x="-22" y="15" as="offset" />
          </mxGeometry>
        </mxCell>
      </root>
    </mxGraphModel>
  </diagram>
</mxfile>
